<svg xmlns="http://www.w3.org/2000/svg" xmlns:xlink="http://www.w3.org/1999/xlink" viewBox="0 0 125 28"><g><path d="M 12.007 28 L 12.007 26.445 L 0 18.703 L 0 20.257 Z M 12.007 17.079 L 12.007 18.644 L 16.761 15.574 L 15.557 14.797 L 12.008 17.08 Z M 12.027 0 L 12.027 1.555 L 24.034 9.298 L 24.034 7.743 Z M 12.027 10.921 L 12.027 9.357 L 7.263 12.426 L 8.478 13.203 L 12.027 10.921 Z" fill="rgb(150, 150, 150)"></path></g><g transform="translate(0 3.119)"><path d="M 12.007 21.762 L 12.007 20.198 L 0 12.455 L 0 14.019 Z M 12.007 18.644 L 19.183 14.01 L 17.977 13.233 L 12.008 17.089 L 12.008 18.644 Z M 12.027 0 L 12.027 1.564 L 24.034 9.308 L 24.034 7.743 L 12.027 0 Z M 12.027 3.119 L 4.842 7.753 L 6.058 8.53 L 12.027 4.673 L 12.027 3.119 Z" fill="rgb(176, 176, 176)"></path><path d="M 12.007 18.644 L 12.007 17.079 L 0 9.337 L 0 10.901 Z M 12.007 21.763 L 21.614 15.574 L 20.398 14.787 L 12.008 20.208 L 12.008 21.763 Z M 12.027 3.119 L 12.027 4.683 L 24.034 12.426 L 24.034 10.861 L 12.027 3.119 Z M 12.027 0 L 2.422 6.188 L 3.627 6.975 L 12.027 1.555 L 12.027 0 Z" fill="rgb(176, 176, 176)"></path></g><g><path d="M 12.007 18.644 L 12.007 17.079 L 0 9.337 L 0 10.901 L 12.007 18.644 Z M 12.007 28 L 24.034 20.248 L 22.819 19.47 L 12.008 26.445 L 12.008 28 Z M 12.027 9.357 L 12.027 10.921 L 24.034 18.663 L 24.034 17.099 L 12.027 9.357 Z M 12.027 0 L 0 7.753 L 1.206 8.53 L 12.027 1.555 Z" fill="rgb(89, 89, 89)"></path></g><path d="M 35.482 18.568 C 31.934 18.568 29.754 16.189 29.754 12.533 C 29.754 8.878 32.211 6.499 36.191 6.499 C 39.825 6.499 42.127 8.213 42.127 11.029 L 42.127 11.169 L 39.237 11.169 L 39.237 11.029 C 39.237 9.665 38.354 9.018 36.122 9.018 C 33.492 9.018 32.506 9.927 32.506 12.533 C 32.506 15.139 33.457 16.049 36.001 16.049 C 38.666 16.049 39.479 15.629 39.548 14.142 L 35.62 14.142 L 35.62 12.201 L 42.144 12.201 L 42.144 18.393 L 39.739 18.393 L 39.739 15.874 L 39.6 15.874 C 39.202 17.413 37.991 18.568 35.482 18.568 Z M 47.862 18.568 C 44.903 18.568 42.913 16.783 42.913 14.02 C 42.913 11.221 44.903 9.455 47.862 9.455 C 50.821 9.455 52.811 11.221 52.811 14.02 C 52.811 16.783 50.821 18.568 47.862 18.568 Z M 47.862 16.241 C 49.61 16.241 50.233 15.559 50.233 14.02 C 50.233 12.481 49.61 11.764 47.862 11.764 C 46.097 11.764 45.491 12.481 45.491 14.02 C 45.491 15.559 46.097 16.241 47.862 16.241 Z M 56.293 18.393 L 53.698 18.393 L 53.698 6.674 L 56.293 6.674 Z M 61.355 18.568 C 58.656 18.568 57.168 16.783 57.168 14.02 C 57.168 11.221 58.639 9.455 61.217 9.455 C 63.276 9.455 64.332 10.487 64.626 11.956 L 64.782 11.956 L 64.782 6.674 L 67.377 6.674 L 67.377 18.393 L 64.955 18.393 L 64.955 15.961 L 64.816 15.961 C 64.488 17.693 63.346 18.568 61.355 18.568 Z M 59.798 14.02 C 59.798 15.612 60.577 16.171 62.238 16.171 C 63.882 16.171 64.782 15.594 64.782 14.072 L 64.782 13.932 C 64.782 12.411 63.899 11.851 62.238 11.851 C 60.577 11.851 59.798 12.411 59.798 14.02 Z M 73.181 18.568 C 70.291 18.568 68.318 17.133 68.318 14.02 C 68.318 11.221 70.274 9.455 73.129 9.455 C 75.967 9.455 77.853 10.959 77.853 13.705 C 77.853 14.02 77.818 14.247 77.784 14.545 L 70.723 14.545 C 70.793 15.891 71.416 16.469 73.094 16.469 C 74.634 16.469 75.171 16.066 75.171 15.314 L 75.171 15.139 L 77.766 15.139 L 77.766 15.332 C 77.766 17.238 75.932 18.568 73.181 18.568 Z M 73.077 11.501 C 71.537 11.501 70.879 12.026 70.758 13.163 L 75.361 13.163 C 75.292 12.008 74.6 11.501 73.077 11.501 Z M 81.376 18.393 L 78.781 18.393 L 78.781 9.63 L 81.186 9.63 L 81.186 12.323 L 81.342 12.323 C 81.567 10.854 82.605 9.455 84.872 9.455 C 87.243 9.455 88.367 10.994 88.367 12.935 L 88.367 18.393 L 85.772 18.393 L 85.772 13.81 C 85.772 12.411 85.201 11.816 83.609 11.816 C 81.965 11.816 81.376 12.481 81.376 13.967 Z M 97.974 18.568 C 94.133 18.568 91.745 16.189 91.745 12.533 C 91.745 8.878 94.133 6.499 97.974 6.499 C 101.902 6.499 104.273 8.878 104.273 12.533 C 104.273 16.189 101.902 18.568 97.974 18.568 Z M 97.974 16.049 C 100.518 16.049 101.504 15.139 101.504 12.533 C 101.504 9.927 100.518 9.018 97.974 9.018 C 95.43 9.018 94.496 9.927 94.496 12.533 C 94.496 15.139 95.43 16.049 97.974 16.049 Z M 107.828 21.366 L 105.232 21.366 L 105.232 9.63 L 107.637 9.63 L 107.637 12.026 L 107.81 12.026 C 108.122 10.347 109.229 9.455 111.271 9.455 C 113.936 9.455 115.424 11.239 115.424 14.02 C 115.424 16.801 113.971 18.568 111.358 18.568 C 109.35 18.568 108.243 17.571 107.949 16.031 L 107.828 16.031 Z M 107.828 14.142 C 107.828 15.647 108.728 16.171 110.354 16.171 C 112.015 16.171 112.794 15.612 112.794 14.02 C 112.794 12.411 112.015 11.869 110.371 11.869 C 108.693 11.869 107.828 12.446 107.828 14.002 Z M 120.708 18.568 C 117.784 18.568 116.175 17.413 116.175 15.384 L 116.175 15.332 L 118.77 15.332 L 118.77 15.489 C 118.77 16.276 119.255 16.486 120.726 16.486 C 122.11 16.486 122.439 16.259 122.439 15.734 C 122.439 15.244 122.179 15.104 121.158 14.964 L 118.718 14.667 C 116.988 14.475 116.019 13.688 116.019 12.218 C 116.019 10.679 117.317 9.455 120.293 9.455 C 123.131 9.455 124.74 10.539 124.74 12.673 L 124.74 12.726 L 122.145 12.726 L 122.145 12.621 C 122.145 11.904 121.799 11.536 120.207 11.536 C 118.909 11.536 118.58 11.764 118.58 12.323 C 118.58 12.778 118.822 12.97 119.964 13.11 L 121.816 13.338 C 124.135 13.6 125 14.387 125 15.839 C 125 17.483 123.391 18.568 120.708 18.568 Z" fill="rgb(NaN,NaN,NaN)"></path></svg>