<svg width="53" height="28" viewBox="0 0 53 28" fill="none" id="svg-2055317973_11300">
<path d="M18.9137 17.3531C18.9817 17.3646 19.049 17.3795 19.1154 17.3978L18.9137 17.3531ZM23.5164 15.1417C23.4623 14.7677 23.3136 14.4135 23.0843 14.1124C22.9474 13.9225 22.7785 13.7575 22.585 13.6249C22.5338 13.593 22.4858 13.558 22.4346 13.5293C22.1873 13.383 21.913 13.2876 21.628 13.2489C20.6214 13.0944 19.5945 13.3443 18.7729 13.9435C19.6164 14.1002 20.4483 14.3131 21.2631 14.5808C21.5673 14.6825 21.8636 14.806 22.1497 14.9505C22.0825 14.9314 21.708 14.8294 21.1895 14.6987C19.9828 14.3801 18.0143 13.9149 17.4542 13.9658C16.638 14.0391 15.4537 14.6032 15.1753 15.0365V15.027C15.14 14.3164 15.108 13.593 15.1272 12.8697C14.9803 12.3739 14.9346 11.8538 14.9928 11.3401C15.0455 11.014 15.1302 10.6938 15.2457 10.3842C15.2758 10.3255 15.3217 10.2763 15.3782 10.242C15.4346 10.2077 15.4996 10.1896 15.5657 10.1898C15.6969 10.1812 15.8273 10.1641 15.9562 10.1388C16.1456 9.83106 16.3597 9.53907 16.5964 9.26569C16.955 8.92688 17.3656 8.6472 17.8127 8.43719C17.6507 8.39636 17.4827 8.3845 17.3166 8.40214C17.5054 8.3736 17.6975 8.3736 17.8863 8.40214C18.001 8.33991 18.1084 8.26509 18.2064 8.17908L18.1456 8.14722L18.2128 8.16952C18.3043 8.08287 18.3697 7.97251 18.4016 7.85087C18.4016 7.79988 18.4848 7.75527 18.5553 7.72022C18.3178 7.70185 18.0795 7.74122 17.8607 7.83493C17.2243 7.9201 16.581 7.94252 15.9402 7.90185C15.6448 7.87789 15.3487 7.93758 15.0859 8.07403C14.8231 8.21047 14.6044 8.41812 14.4551 8.673L14.1958 9.16372L14.023 9.48238L12.1441 12.8219L11.9329 13.2584L11.5392 14.071C11.5381 14.0784 11.5381 14.0859 11.5392 14.0933L11.1551 14.8772C11.1551 14.8772 10.3933 16.7286 10.835 17.9235C10.9712 18.2778 11.1899 18.5948 11.4731 18.8486C11.7563 19.1023 12.096 19.2854 12.4642 19.383C12.4642 19.383 13.4244 19.5965 13.9654 19.3192C13.9654 19.3192 15.0088 18.8636 15.4921 18.5704C15.6824 18.4549 15.8952 18.3811 16.1163 18.3537C16.7116 18.2709 17.8063 18.1243 17.9247 18.1179L17.5086 18.1944C16.4816 18.3752 15.4864 18.7036 14.5543 19.1695C14.3906 19.2623 14.2151 19.3331 14.0326 19.3798C15.2144 20.0991 16.6018 20.4094 17.9791 20.2625C20.3925 20.0521 21.1191 18.8285 21.1191 18.8285C20.6625 18.1195 19.9536 17.6085 19.1346 17.3978C19.6499 17.5157 20.7158 17.8534 21.2375 18.6724C21.2605 18.7035 21.2809 18.7366 21.2983 18.7712C21.2983 18.7712 23.987 18.4493 23.5164 15.1417Z" fill="black"/>
<path d="M35.2366 5.80608V7.65109H18.775C18.7234 7.63987 18.6699 7.63987 18.6182 7.65109L18.5254 7.69889C18.455 7.73394 18.3877 7.77855 18.3717 7.82953C18.3398 7.95118 18.2744 8.06154 18.1829 8.14819C18.0849 8.2342 17.9775 8.30902 17.8628 8.37125C17.8518 8.3798 17.84 8.38727 17.8276 8.39355C17.8136 8.40016 17.8007 8.40874 17.7892 8.41905C17.3421 8.62905 16.9315 8.90873 16.5729 9.24755C16.3362 9.52092 16.1221 9.81291 15.9328 10.1207C15.4262 10.9329 15.1446 11.8641 15.1166 12.8197V12.8547C15.0974 13.5781 15.1166 14.3014 15.1646 15.012V15.0279C15.1646 15.1713 15.1838 15.3179 15.1902 15.4613H11.1124C11.2038 14.9871 11.3443 14.5237 11.5317 14.0783C11.5307 14.0709 11.5307 14.0634 11.5317 14.056C11.648 13.7783 11.7794 13.507 11.9254 13.2435C12.0182 13.065 12.1207 12.8961 12.2295 12.7209C12.4663 12.3353 12.684 11.9338 12.9464 11.5642C13.4207 10.9388 13.7815 10.2357 14.0123 9.48654C14.0972 9.16157 14.1444 8.828 14.1531 8.49234C14.1531 8.22148 14.1531 7.95062 14.1531 7.66383H6.60254V5.80289C8.18051 5.80289 12.9593 5.80289 14.5404 5.80289C14.8605 5.80289 15.0365 5.55753 15.283 5.43644C15.459 5.3504 15.6031 5.25162 15.7183 5.5161C15.9968 5.30579 16.2144 5.13053 16.5985 5.25162C16.9235 5.30202 17.2548 5.29663 17.578 5.23569C17.8756 5.21657 18.1541 5.20701 18.2693 5.57027C18.3333 5.77421 18.5094 5.79652 18.7046 5.79652L35.2366 5.80608Z" fill="black"/>
<path d="M33.8706 17.4016C33.9371 17.3834 34.0044 17.3685 34.0723 17.357C34.0243 17.3666 33.9539 17.3793 33.8706 17.4016ZM31.6973 18.7846C31.7148 18.75 31.7351 18.717 31.7581 18.6858C32.2767 17.8605 33.3585 17.5227 33.8578 17.4112C33.0393 17.6231 32.3309 18.1338 31.8734 18.8419C31.8734 18.8419 32.6031 20.0656 35.0165 20.2759C36.3937 20.4221 37.781 20.1118 38.963 19.3932C38.7805 19.3465 38.6051 19.2757 38.4413 19.1829C37.5092 18.717 36.514 18.3886 35.487 18.2078L35.0677 18.1313C35.1893 18.1313 36.2808 18.2843 36.8794 18.3671C37.0961 18.3959 37.3044 18.4697 37.4907 18.5838C37.9772 18.877 39.0207 19.3327 39.0207 19.3327C39.5552 19.6099 40.5218 19.3964 40.5218 19.3964C40.8894 19.2984 41.2285 19.1151 41.5111 18.8614C41.7938 18.6077 42.012 18.2909 42.1478 17.9369C42.5863 16.742 41.8277 14.8906 41.8277 14.8906L41.45 14.1067C41.4511 14.0993 41.4511 14.0918 41.45 14.0844L41.0563 13.2718L40.8451 12.8353L38.9726 9.48623L38.7966 9.16758L38.5694 8.64498C38.4175 8.39365 38.1977 8.18987 37.9351 8.0569C37.6725 7.92393 37.3777 7.86712 37.0842 7.89296C36.4434 7.93377 35.8001 7.91136 35.1637 7.82604C34.9449 7.73257 34.7066 7.69321 34.4692 7.71133C34.5396 7.74638 34.6068 7.79099 34.6196 7.84198C34.654 7.96333 34.7203 8.07335 34.8117 8.16063L34.8789 8.13832L34.8181 8.17019C34.9161 8.2562 35.0234 8.33102 35.1381 8.39325C35.327 8.36471 35.519 8.36471 35.7079 8.39325C35.5417 8.37561 35.3737 8.38747 35.2118 8.4283C35.6579 8.63836 36.0674 8.91806 36.4248 9.2568C36.6625 9.52944 36.8766 9.82151 37.065 10.1299C37.1929 10.155 37.3222 10.172 37.4523 10.1809C37.5185 10.1804 37.5836 10.1983 37.6402 10.2326C37.6967 10.267 37.7425 10.3164 37.7724 10.3753C37.8908 10.684 37.9755 11.0045 38.0252 11.3312C38.0865 11.8447 38.0418 12.3651 37.894 12.8608C37.9132 13.5841 37.894 14.3075 37.846 15.0181V15.034C37.5675 14.5911 36.38 14.0366 35.567 13.9633C35.0069 13.9123 33.0384 14.3871 31.8318 14.6962C31.31 14.8269 30.9355 14.9288 30.8715 14.948C31.1456 14.8077 31.429 14.6863 31.7197 14.5847C32.5357 14.3172 33.3687 14.1043 34.2131 13.9474C33.3916 13.3482 32.3646 13.0983 31.358 13.2527C31.0728 13.2904 30.7983 13.3859 30.5514 13.5331C30.5002 13.5618 30.449 13.5969 30.401 13.6287C30.2092 13.7597 30.0414 13.9225 29.9049 14.1099C29.6756 14.411 29.5269 14.7652 29.4728 15.1392C28.9991 18.4532 31.6973 18.7846 31.6973 18.7846Z" fill="black"/>
<path d="M32.0186 5.8051V7.65011H34.2047C34.2574 7.63873 34.312 7.63873 34.3647 7.65011L34.4575 7.69791C34.528 7.73296 34.5952 7.77757 34.608 7.82856C34.6423 7.94992 34.7086 8.05993 34.8 8.14721C34.898 8.23322 35.0054 8.30804 35.1201 8.37027C35.1311 8.37883 35.1429 8.3863 35.1553 8.39258L35.1937 8.41807C35.6398 8.62813 36.0494 8.90782 36.4068 9.24657C36.6444 9.5192 36.8586 9.81127 37.047 10.1197C37.5515 10.9328 37.833 11.8634 37.8632 12.8187V12.8537C37.8824 13.5771 37.8631 14.3004 37.8151 15.011V15.027C37.8151 15.1704 37.7959 15.3169 37.7895 15.4603H41.8705C41.7802 14.9863 41.6408 14.5228 41.4544 14.0774C41.4555 14.07 41.4555 14.0625 41.4544 14.0551C41.3381 13.7773 41.2067 13.506 41.0607 13.2425C40.9679 13.0641 40.8655 12.8952 40.7406 12.7199C40.5006 12.3343 40.2829 11.9328 40.0237 11.5632C39.5527 10.9377 39.1962 10.2344 38.9706 9.48556C38.8847 9.16071 38.8363 8.82714 38.8266 8.49136C38.8266 8.2205 38.8266 7.94965 38.8266 7.66286H46.3772V5.80192C44.8024 5.80192 40.0237 5.80192 38.4425 5.80192C38.1064 5.80192 37.9464 5.55655 37.6999 5.43546C37.5207 5.34943 37.3798 5.25064 37.2646 5.51513C36.9861 5.30481 36.7685 5.12955 36.3844 5.25064C36.0594 5.30104 35.7281 5.29565 35.405 5.23471C35.1041 5.21559 34.8256 5.20603 34.7136 5.5693C34.6496 5.77324 34.4735 5.79554 34.2783 5.79554L32.0186 5.8051Z" fill="black"/>
<path d="M38.4925 7.69629L46.376 7.69629V5.80029L38.4925 5.80029V7.69629Z" fill="black"/>
<path d="M46.3875 5.75684H6.61133V7.66524H46.3875V5.75684Z" fill="black"/>
<path d="M29.3933 25.1587C29.2101 25.7278 28.8501 26.2243 28.3651 26.5766C27.8802 26.9288 27.2953 27.1185 26.695 27.1184H26.631C26.0446 27.1181 25.4727 26.9368 24.9941 26.5996C24.5155 26.2623 24.1536 25.7856 23.9584 25.2351L20.8408 17.3485C20.6557 16.8272 20.5991 16.2693 20.6758 15.7217C20.7524 15.1741 20.9601 14.6528 21.2814 14.2018C21.6026 13.7508 22.028 13.3833 22.5218 13.1301C23.0155 12.8769 23.5631 12.7456 24.1184 12.7471H28.9196C29.4659 12.7472 30.0045 12.8758 30.4915 13.1223C30.9785 13.3689 31.4001 13.7264 31.7221 14.1659C32.044 14.6053 32.2572 15.1143 32.3442 15.6513C32.4312 16.1882 32.3896 16.7381 32.2227 17.256L29.3933 25.1587Z" fill="black"/>
<path d="M26.526 15.3408C29.1281 15.3408 31.2375 12.984 31.2375 10.0767C31.2375 7.16935 29.1281 4.8125 26.526 4.8125C23.9239 4.8125 21.8145 7.16935 21.8145 10.0767C21.8145 12.984 23.9239 15.3408 26.526 15.3408Z" fill="black"/>
<path d="M2.42532 3.70996H1.9646C1.67834 3.70996 1.44629 3.94202 1.44629 4.22827V9.30901C1.44629 9.59526 1.67834 9.82732 1.9646 9.82732H2.42532C2.71158 9.82732 2.94363 9.59526 2.94363 9.30901V4.22827C2.94363 3.94202 2.71158 3.70996 2.42532 3.70996Z" fill="black"/>
<path d="M3.9761 2.11035H3.51538C3.22913 2.11035 2.99707 2.34241 2.99707 2.62866V10.9089C2.99707 11.1951 3.22913 11.4272 3.51538 11.4272H3.9761C4.26236 11.4272 4.49442 11.1951 4.49442 10.9089V2.62866C4.49442 2.34241 4.26236 2.11035 3.9761 2.11035Z" fill="black"/>
<path d="M6.53873 1.56804V11.9695C6.53873 12.1527 6.46589 12.3285 6.33623 12.4581C6.20657 12.5877 6.03072 12.6605 5.84736 12.6605H5.23602C5.05321 12.6597 4.87818 12.5865 4.74922 12.457C4.62025 12.3275 4.54785 12.1522 4.54785 11.9695V11.1792C4.59144 11.0963 4.61449 11.0041 4.61507 10.9104V2.62705C4.61449 2.53339 4.59144 2.44122 4.54785 2.3583V1.56804C4.54785 1.3853 4.62025 1.21001 4.74922 1.08049C4.87818 0.950983 5.05321 0.877799 5.23602 0.876953H5.85056C6.03337 0.877799 6.2084 0.950983 6.33736 1.08049C6.46633 1.21001 6.53873 1.3853 6.53873 1.56804Z" fill="black"/>
<path d="M1.50297 5.75684V7.66524H1.4419C1.11873 7.66524 0.864258 7.28245 0.864258 6.80464V6.61464C0.864258 6.13964 1.11873 5.75684 1.4419 5.75684H1.50297Z" fill="black"/>
<path d="M46.4395 1.56804V11.9695C46.4395 12.1528 46.5123 12.3285 46.642 12.4581C46.7716 12.5877 46.9475 12.6606 47.1308 12.6606H47.7422C47.8332 12.661 47.9235 12.6434 48.0077 12.6089C48.092 12.5743 48.1686 12.5235 48.2331 12.4593C48.2976 12.3951 48.3489 12.3187 48.3838 12.2347C48.4187 12.1506 48.4367 12.0605 48.4367 11.9695V11.1792C48.3931 11.0963 48.3701 11.0041 48.3695 10.9105V2.62706C48.3701 2.53339 48.3931 2.44123 48.4367 2.35831V1.56804C48.4367 1.47702 48.4187 1.38689 48.3838 1.30284C48.3489 1.21878 48.2976 1.14245 48.2331 1.07824C48.1686 1.01402 48.092 0.963186 48.0077 0.928645C47.9235 0.894103 47.8332 0.876539 47.7422 0.876961H47.1308C47.04 0.876961 46.9501 0.894836 46.8662 0.929566C46.7824 0.964296 46.7062 1.0152 46.642 1.07937C46.5778 1.14355 46.5268 1.21973 46.4921 1.30358C46.4573 1.38742 46.4395 1.47729 46.4395 1.56804Z" fill="black"/>
<path d="M49.4693 2.11035H49.0085C48.7223 2.11035 48.4902 2.34241 48.4902 2.62866V10.9089C48.4902 11.1951 48.7223 11.4272 49.0085 11.4272H49.4693C49.7555 11.4272 49.9876 11.1951 49.9876 10.9089V2.62866C49.9876 2.34241 49.7555 2.11035 49.4693 2.11035Z" fill="black"/>
<path d="M51.02 3.70996H50.5593C50.2731 3.70996 50.041 3.94202 50.041 4.22827V9.30901C50.041 9.59526 50.2731 9.82732 50.5593 9.82732H51.02C51.3063 9.82732 51.5384 9.59526 51.5384 9.30901V4.22827C51.5384 3.94202 51.3063 3.70996 51.02 3.70996Z" fill="black"/>
<path d="M51.5517 7.6709V5.76249H51.6128C51.936 5.76249 52.1904 6.14529 52.1904 6.62309V6.81309C52.1904 7.2881 51.936 7.6709 51.6128 7.6709H51.5517Z" fill="black"/>
</svg>