<svg xmlns="http://www.w3.org/2000/svg" xmlns:xlink="http://www.w3.org/1999/xlink" viewBox="0 0 119 29"><path d="M 39.768 10.051 L 36.54 15.528 L 40.35 22.266 L 32.502 22.266 L 29.295 28.042 L 50.057 28.042 Z" fill="rgb(0,0,0)"></path><path d="M 13.951 10.051 L 17.179 15.528 L 13.37 22.266 L 21.218 22.266 L 24.425 28.042 L 3.662 28.042 Z" fill="rgb(0,0,0)"></path><path d="M 10.703 0.313 L 42.968 0.313 L 39.096 6.993 L 30.181 6.993 L 30.181 22.244 L 26.893 28.042 L 23.476 22.266 L 23.477 6.993 L 14.624 6.993 Z" fill="rgb(0,0,0)"></path><path d="M 59.107 15.217 C 59.095 15.287 59.087 15.357 59.082 15.428 C 59.082 15.786 59.278 15.966 59.669 15.966 C 59.905 15.959 60.135 15.895 60.339 15.779 L 60.621 17.311 C 60.112 17.577 59.541 17.706 58.967 17.685 C 58.402 17.715 57.845 17.541 57.399 17.194 C 57.205 17.025 57.051 16.814 56.95 16.576 C 56.85 16.339 56.805 16.083 56.818 15.825 C 56.815 15.625 56.835 15.425 56.876 15.229 L 57.298 13.135 L 56.36 13.135 L 56.7 11.475 L 57.628 11.475 L 57.956 9.826 L 60.186 9.826 L 59.858 11.475 L 61.302 11.475 L 60.972 13.135 L 59.529 13.135 Z" fill="rgb(0,0,0)"></path><path d="M 68.273 14.96 L 63.602 14.96 C 63.68 15.646 64.161 15.989 65.046 15.989 C 65.324 15.99 65.601 15.946 65.866 15.861 C 66.127 15.778 66.37 15.647 66.582 15.474 L 67.509 16.866 C 66.72 17.426 65.768 17.714 64.799 17.685 C 64.187 17.697 63.58 17.576 63.02 17.329 C 62.536 17.115 62.124 16.766 61.835 16.323 C 61.551 15.865 61.406 15.335 61.419 14.796 C 61.41 14.138 61.578 13.49 61.905 12.919 C 62.228 12.364 62.7 11.911 63.268 11.61 C 63.884 11.285 64.572 11.122 65.268 11.135 C 65.841 11.123 66.409 11.241 66.928 11.481 C 67.381 11.692 67.761 12.031 68.021 12.457 C 68.281 12.9 68.413 13.406 68.402 13.919 C 68.396 14.269 68.353 14.618 68.273 14.96 Z M 64.258 13.001 C 64.007 13.205 63.823 13.48 63.731 13.79 L 66.347 13.79 C 66.359 13.643 66.336 13.496 66.281 13.359 C 66.226 13.222 66.141 13.1 66.03 13.001 C 65.786 12.802 65.477 12.7 65.162 12.715 C 64.836 12.704 64.517 12.805 64.258 13.001 Z" fill="rgb(0,0,0)"></path><path d="M 70.486 17.329 C 70.004 17.112 69.597 16.76 69.312 16.317 C 69.028 15.861 68.884 15.333 68.895 14.796 C 68.884 14.141 69.057 13.495 69.395 12.933 C 69.733 12.371 70.223 11.914 70.808 11.616 C 71.435 11.29 72.133 11.125 72.839 11.136 C 73.49 11.119 74.133 11.274 74.704 11.586 C 75.216 11.873 75.621 12.318 75.855 12.855 L 73.953 13.756 C 73.867 13.501 73.7 13.282 73.479 13.13 C 73.256 12.978 72.991 12.902 72.721 12.913 C 72.51 12.908 72.3 12.949 72.106 13.034 C 71.912 13.119 71.739 13.245 71.6 13.405 C 71.298 13.755 71.141 14.206 71.16 14.668 C 71.152 14.831 71.176 14.994 71.231 15.147 C 71.287 15.301 71.372 15.442 71.482 15.563 C 71.605 15.679 71.75 15.768 71.908 15.825 C 72.067 15.883 72.236 15.907 72.404 15.896 C 72.68 15.902 72.952 15.833 73.191 15.697 C 73.439 15.542 73.641 15.324 73.777 15.066 L 75.409 16.048 C 75.103 16.563 74.658 16.981 74.123 17.253 C 73.545 17.547 72.902 17.696 72.252 17.685 C 71.644 17.698 71.04 17.577 70.486 17.329 Z" fill="rgb(0,0,0)"></path><path d="M 83.683 11.241 L 82.415 17.58 L 80.302 17.58 L 80.432 16.984 C 79.932 17.448 79.271 17.699 78.589 17.685 C 78.125 17.687 77.67 17.568 77.268 17.34 C 76.851 17.105 76.508 16.758 76.277 16.34 C 76.017 15.868 75.887 15.335 75.901 14.796 C 75.892 14.145 76.051 13.503 76.364 12.931 C 76.659 12.39 77.093 11.935 77.621 11.616 C 78.141 11.298 78.74 11.131 79.351 11.136 C 79.724 11.098 80.099 11.158 80.441 11.31 C 80.784 11.462 81.08 11.7 81.3 12.001 L 81.453 11.241 Z M 80.455 15.404 C 80.748 15.045 80.899 14.592 80.878 14.13 C 80.886 13.967 80.862 13.805 80.807 13.652 C 80.752 13.5 80.666 13.359 80.555 13.24 C 80.438 13.128 80.298 13.041 80.146 12.985 C 79.994 12.928 79.832 12.904 79.669 12.913 C 79.462 12.907 79.255 12.948 79.066 13.033 C 78.877 13.118 78.71 13.245 78.577 13.404 C 78.283 13.767 78.133 14.225 78.154 14.691 C 78.14 14.852 78.162 15.015 78.217 15.168 C 78.273 15.32 78.361 15.459 78.477 15.574 C 78.592 15.688 78.731 15.777 78.884 15.832 C 79.037 15.888 79.2 15.909 79.363 15.895 C 79.57 15.901 79.777 15.86 79.965 15.775 C 80.155 15.69 80.322 15.563 80.455 15.404 Z" fill="rgb(0,0,0)"></path><path d="M 91.806 11.241 L 90.538 17.58 L 88.425 17.58 L 88.555 16.925 C 88.29 17.177 87.976 17.372 87.633 17.498 C 87.296 17.622 86.941 17.685 86.582 17.685 C 85.977 17.716 85.383 17.516 84.922 17.124 C 84.71 16.917 84.545 16.666 84.439 16.39 C 84.332 16.113 84.287 15.817 84.306 15.522 C 84.306 15.258 84.333 14.996 84.388 14.738 L 85.092 11.241 L 87.322 11.241 L 86.665 14.527 C 86.634 14.669 86.618 14.814 86.617 14.96 C 86.602 15.075 86.615 15.191 86.653 15.3 C 86.691 15.409 86.754 15.508 86.838 15.589 C 86.92 15.669 87.021 15.73 87.132 15.765 C 87.243 15.8 87.36 15.809 87.474 15.791 C 87.649 15.797 87.823 15.768 87.986 15.707 C 88.149 15.646 88.299 15.553 88.426 15.434 C 88.704 15.142 88.883 14.772 88.942 14.375 L 89.575 11.241 Z" fill="rgb(0,0,0)"></path><path d="M 100.466 8.902 L 98.729 17.58 L 96.617 17.58 L 96.746 16.96 C 96.503 17.196 96.213 17.382 95.897 17.507 C 95.581 17.631 95.243 17.691 94.902 17.685 C 94.44 17.687 93.985 17.568 93.584 17.34 C 93.167 17.105 92.823 16.758 92.591 16.34 C 92.331 15.868 92.202 15.335 92.215 14.796 C 92.207 14.145 92.367 13.503 92.678 12.931 C 92.974 12.389 93.41 11.934 93.941 11.616 C 94.464 11.298 95.065 11.132 95.678 11.136 C 96.047 11.1 96.417 11.159 96.756 11.306 C 97.095 11.454 97.391 11.685 97.615 11.978 L 98.236 8.902 Z M 96.77 15.404 C 97.063 15.045 97.213 14.592 97.193 14.13 C 97.201 13.968 97.177 13.806 97.123 13.653 C 97.068 13.501 96.984 13.36 96.876 13.24 C 96.76 13.128 96.622 13.041 96.47 12.984 C 96.318 12.928 96.157 12.903 95.995 12.912 C 95.788 12.907 95.582 12.948 95.393 13.033 C 95.203 13.118 95.036 13.245 94.903 13.404 C 94.61 13.767 94.46 14.225 94.481 14.691 C 94.472 14.851 94.496 15.013 94.55 15.164 C 94.604 15.316 94.689 15.455 94.798 15.574 C 94.915 15.684 95.054 15.77 95.205 15.825 C 95.357 15.881 95.518 15.904 95.679 15.895 C 95.886 15.901 96.092 15.86 96.281 15.775 C 96.47 15.69 96.637 15.563 96.77 15.404 Z" fill="rgb(0,0,0)"></path><path d="M 107.227 14.96 L 102.555 14.96 C 102.634 15.646 103.115 15.989 104 15.989 C 104.278 15.99 104.555 15.946 104.82 15.861 C 105.081 15.778 105.324 15.647 105.536 15.474 L 106.463 16.866 C 105.673 17.426 104.721 17.714 103.752 17.685 C 103.141 17.697 102.534 17.576 101.975 17.329 C 101.49 17.115 101.078 16.766 100.789 16.323 C 100.505 15.865 100.36 15.335 100.373 14.796 C 100.364 14.138 100.532 13.49 100.859 12.919 C 101.182 12.364 101.654 11.911 102.222 11.61 C 102.837 11.285 103.525 11.122 104.222 11.135 C 104.795 11.123 105.363 11.241 105.882 11.481 C 106.335 11.692 106.715 12.031 106.975 12.457 C 107.235 12.9 107.366 13.406 107.355 13.919 C 107.35 14.269 107.307 14.618 107.227 14.96 Z M 103.212 13.001 C 102.961 13.205 102.777 13.48 102.685 13.79 L 105.301 13.79 C 105.312 13.643 105.29 13.496 105.235 13.359 C 105.18 13.222 105.094 13.1 104.985 13.001 C 104.741 12.802 104.431 12.7 104.115 12.715 C 103.791 12.704 103.471 12.805 103.212 13.001 Z" fill="rgb(0,0,0)"></path><path d="M 112.262 14.434 L 113.987 17.58 L 111.617 17.58 L 110.748 15.919 L 109.21 17.58 L 106.687 17.58 L 109.868 14.329 L 108.189 11.241 L 110.524 11.241 L 111.37 12.855 L 112.883 11.241 L 115.337 11.241 Z" fill="rgb(0,0,0)"></path></svg>