<svg xmlns="http://www.w3.org/2000/svg" xmlns:xlink="http://www.w3.org/1999/xlink" viewBox="0 0 111 20"><path d="M 10.116 14.426 L 10.116 19.286 L 7.964 19.286 C 4.002 19.286 2.021 17.306 2.021 13.346 L 2.021 9.54 L 0.228 9.54 L 0.228 4.783 L 2.021 4.783 L 2.021 1.286 L 7.708 1.286 L 7.708 4.783 L 10.065 4.783 L 10.065 9.54 L 7.708 9.54 L 7.708 13.449 C 7.708 13.791 7.785 14.04 7.939 14.194 C 8.109 14.349 8.383 14.426 8.758 14.426 Z M 22.4 4.68 C 24.056 4.68 25.346 5.237 26.268 6.351 C 27.207 7.466 27.677 8.974 27.677 10.877 L 27.677 19.286 L 22.015 19.286 L 22.015 11.597 C 22.015 10.911 21.827 10.371 21.451 9.977 C 21.093 9.566 20.606 9.36 19.991 9.36 C 19.36 9.36 18.864 9.566 18.506 9.977 C 18.147 10.371 17.968 10.911 17.968 11.597 L 17.968 19.286 L 12.281 19.286 L 12.281 0.257 L 17.968 0.257 L 17.968 6.994 C 18.416 6.304 19.022 5.731 19.735 5.323 C 20.487 4.894 21.375 4.68 22.399 4.68 Z M 44.129 11.906 C 44.129 12.3 44.103 12.677 44.052 13.037 L 34.907 13.037 C 34.992 14.289 35.513 14.914 36.469 14.914 C 37.083 14.914 37.527 14.631 37.8 14.066 L 43.82 14.066 C 43.62 15.085 43.171 16.039 42.514 16.843 C 41.865 17.649 41.037 18.291 40.03 18.771 C 39.039 19.234 37.946 19.466 36.751 19.466 C 35.316 19.466 34.035 19.166 32.909 18.566 C 31.81 17.977 30.904 17.085 30.296 15.994 C 29.681 14.863 29.373 13.543 29.373 12.034 C 29.373 10.526 29.681 9.214 30.296 8.1 C 30.928 6.969 31.798 6.103 32.909 5.503 C 34.036 4.903 35.316 4.603 36.751 4.603 C 38.185 4.603 39.457 4.903 40.567 5.503 C 41.669 6.062 42.579 6.94 43.18 8.023 C 43.812 9.12 44.128 10.414 44.128 11.906 Z M 38.365 10.543 C 38.365 10.063 38.212 9.703 37.904 9.463 C 37.597 9.206 37.212 9.077 36.752 9.077 C 35.743 9.077 35.154 9.566 34.984 10.543 Z M 67.854 4.783 L 64.421 19.286 L 58.017 19.286 L 56.276 11.109 L 54.431 19.286 L 48.027 19.286 L 44.621 4.783 L 50.256 4.783 L 51.46 13.603 L 53.33 4.783 L 59.401 4.783 L 61.373 13.706 L 62.603 4.783 Z M 68.298 12.034 C 68.298 10.509 68.554 9.189 69.066 8.074 C 69.596 6.943 70.313 6.086 71.218 5.503 C 72.123 4.903 73.139 4.603 74.266 4.603 C 75.205 4.603 76.017 4.8 76.7 5.194 C 77.363 5.551 77.906 6.097 78.262 6.763 L 78.262 4.783 L 83.923 4.783 L 83.923 19.286 L 78.262 19.286 L 78.262 17.306 C 77.904 17.974 77.383 18.506 76.7 18.9 C 76.017 19.277 75.205 19.466 74.266 19.466 C 73.139 19.466 72.123 19.174 71.218 18.591 C 70.313 17.991 69.596 17.134 69.066 16.02 C 68.554 14.889 68.298 13.56 68.298 12.034 Z M 78.262 12.034 C 78.262 11.263 78.066 10.663 77.673 10.234 C 77.28 9.806 76.776 9.591 76.162 9.591 C 75.547 9.591 75.043 9.806 74.65 10.234 C 74.258 10.663 74.061 11.263 74.061 12.034 C 74.061 12.806 74.258 13.406 74.65 13.834 C 75.043 14.263 75.547 14.477 76.162 14.477 C 76.776 14.477 77.28 14.263 77.673 13.834 C 78.066 13.406 78.262 12.806 78.262 12.034 Z M 92.163 0.257 L 92.163 19.286 L 86.476 19.286 L 86.476 0.257 Z M 103.722 14.426 L 103.722 19.286 L 101.571 19.286 C 97.609 19.286 95.628 17.306 95.628 13.346 L 95.628 9.54 L 93.835 9.54 L 93.835 4.783 L 95.628 4.783 L 95.628 1.286 L 101.315 1.286 L 101.315 4.783 L 103.671 4.783 L 103.671 9.54 L 101.315 9.54 L 101.315 13.449 C 101.315 13.791 101.391 14.04 101.545 14.194 C 101.716 14.349 101.989 14.426 102.365 14.426 Z" fill="rgb(0, 0, 0)"></path><path d="M 110.96 13.834 L 110.96 19.286 L 105.325 19.286 L 105.325 13.834 Z" fill="rgb(0, 0, 0)"></path></svg>