<svg xmlns="http://www.w3.org/2000/svg" viewBox="0 0 69 35">
<path d="M24.5674 21.5654C24.6552 21.5803 24.7421 21.5996 24.828 21.6233L24.5674 21.5654ZM30.5153 18.6948C30.4454 18.2093 30.2532 17.7496 29.9569 17.3588C29.78 17.1122 29.5617 16.8981 29.3117 16.7259C29.2455 16.6846 29.1835 16.6391 29.1173 16.6018C28.7977 16.4119 28.4433 16.2881 28.0749 16.2378C26.7742 16.0374 25.4471 16.3617 24.3854 17.1396C25.4754 17.3429 26.5505 17.6193 27.6034 17.9668C27.9965 18.0987 28.3794 18.2591 28.7491 18.4466C28.6623 18.4218 28.1783 18.2894 27.5083 18.1199C25.9489 17.7062 23.4051 17.1023 22.6813 17.1685C21.6265 17.2636 20.0961 17.9958 19.7362 18.5583V18.5459C19.6907 17.6235 19.6494 16.6846 19.6742 15.7456C19.4843 15.102 19.4253 14.427 19.5005 13.7602C19.5686 13.3369 19.678 12.9213 19.8272 12.5193C19.8662 12.4432 19.9254 12.3793 19.9984 12.3348C20.0714 12.2902 20.1554 12.2668 20.2409 12.267C20.4103 12.2558 20.5789 12.2337 20.7455 12.2008C20.9902 11.8013 21.2669 11.4223 21.5727 11.0675C22.0361 10.6277 22.5667 10.2646 23.1445 9.99204C22.9352 9.93904 22.7181 9.92364 22.5034 9.94654C22.7474 9.9095 22.9956 9.9095 23.2397 9.94654C23.3879 9.86576 23.5266 9.76864 23.6533 9.657L23.5747 9.61564L23.6616 9.64459C23.7798 9.53211 23.8643 9.38886 23.9056 9.23096C23.9056 9.16478 24.0131 9.10687 24.1041 9.06137C23.7973 9.03752 23.4893 9.08863 23.2066 9.21028C22.3842 9.32083 21.5529 9.34993 20.7248 9.29714C20.3431 9.26604 19.9603 9.34352 19.6207 9.52063C19.2811 9.69775 18.9986 9.96728 18.8056 10.2981L18.4706 10.9351L18.2472 11.3487L15.8192 15.6836L15.5462 16.2502L15.0375 17.305C15.0361 17.3146 15.0361 17.3244 15.0375 17.334L14.5411 18.3515C14.5411 18.3515 13.5567 20.7547 14.1275 22.3058C14.3034 22.7656 14.586 23.1772 14.952 23.5065C15.3181 23.8359 15.757 24.0736 16.2328 24.2002C16.2328 24.2002 17.4737 24.4773 18.1727 24.1175C18.1727 24.1175 19.5212 23.526 20.1457 23.1454C20.3916 22.9956 20.6666 22.8997 20.9523 22.8642C21.7217 22.7566 23.1363 22.5664 23.2893 22.5581L22.7516 22.6574C21.4244 22.892 20.1383 23.3184 18.9338 23.9231C18.7222 24.0436 18.4955 24.1354 18.2596 24.1961C19.7868 25.1297 21.5798 25.5325 23.3596 25.3418C26.4783 25.0688 27.4173 23.4805 27.4173 23.4805C26.8272 22.5602 25.9112 21.8968 24.8528 21.6233C25.5187 21.7763 26.8961 22.2148 27.5703 23.2778C27.6001 23.3183 27.6264 23.3612 27.6489 23.406C27.6489 23.406 31.1234 22.9883 30.5153 18.6948Z" fill="black"/>
<path d="M45.6609 6.57155V8.96646H24.3889C24.3221 8.9519 24.253 8.9519 24.1862 8.96646L24.0662 9.02851C23.9752 9.07401 23.8884 9.13191 23.8677 9.19809C23.8264 9.35599 23.7419 9.49924 23.6237 9.61172C23.497 9.72337 23.3583 9.82049 23.2101 9.90127C23.1959 9.91237 23.1806 9.92207 23.1646 9.93022C23.1465 9.93879 23.1298 9.94994 23.1149 9.96331C22.5372 10.2359 22.0066 10.5989 21.5432 11.0387C21.2374 11.3936 20.9607 11.7726 20.716 12.1721C20.0614 13.2264 19.6975 14.4351 19.6613 15.6755V15.721C19.6364 16.66 19.6613 17.5989 19.7233 18.5213V18.542C19.7233 18.7281 19.7481 18.9184 19.7564 19.1045H14.487C14.6051 18.489 14.7867 17.8874 15.0288 17.3094C15.0275 17.2998 15.0275 17.29 15.0288 17.2804C15.1791 16.9198 15.3489 16.5677 15.5376 16.2257C15.6575 15.994 15.7899 15.7748 15.9305 15.5473C16.2366 15.0468 16.5178 14.5256 16.857 14.0458C17.4699 13.2341 17.936 12.3214 18.2343 11.349C18.344 10.9271 18.4051 10.4942 18.4163 10.0584C18.4163 9.70686 18.4163 9.35527 18.4163 8.98301H8.65918V6.56741C10.6983 6.56741 16.8735 6.56741 18.9168 6.56741C19.3304 6.56741 19.5579 6.24892 19.8763 6.09174C20.1038 5.98006 20.29 5.85183 20.4389 6.19515C20.7987 5.92215 21.08 5.69465 21.5763 5.85183C21.9963 5.91725 22.4243 5.91025 22.8419 5.83115C23.2266 5.80633 23.5864 5.79393 23.7354 6.26546C23.8181 6.53019 24.0456 6.55914 24.2979 6.55914L45.6609 6.57155Z" fill="black"/>
<path d="M43.8901 21.6253C43.9759 21.6016 44.0629 21.5823 44.1507 21.5674C44.0886 21.5798 43.9976 21.5963 43.8901 21.6253ZM41.0816 23.4205C41.1041 23.3756 41.1304 23.3327 41.1602 23.2922C41.8302 22.2209 43.2283 21.7825 43.8735 21.6377C42.8158 21.9128 41.9003 22.5758 41.3091 23.4949C41.3091 23.4949 42.2521 25.0832 45.3709 25.3562C47.1506 25.546 48.9433 25.1433 50.4709 24.2105C50.235 24.1498 50.0083 24.058 49.7967 23.9375C48.5921 23.3328 47.3061 22.9064 45.9789 22.6718L45.4371 22.5725C45.5942 22.5725 47.0047 22.7711 47.7782 22.8786C48.0583 22.9159 48.3275 23.0117 48.5682 23.1599C49.1969 23.5404 50.5453 24.1319 50.5453 24.1319C51.2361 24.4918 52.4852 24.2146 52.4852 24.2146C52.9603 24.0874 53.3984 23.8494 53.7637 23.5201C54.1289 23.1908 54.4109 22.7796 54.5865 22.3202C55.1531 20.7691 54.1728 18.3659 54.1728 18.3659L53.6848 17.3484C53.6861 17.3388 53.6861 17.329 53.6848 17.3194L53.176 16.2647L52.903 15.698L50.4833 11.3508L50.2558 10.9371L49.9621 10.2588C49.7659 9.93252 49.4819 9.66801 49.1425 9.4954C48.8032 9.3228 48.4221 9.24906 48.0429 9.28261C47.2148 9.33558 46.3835 9.30649 45.5611 9.19574C45.2783 9.07441 44.9704 9.02332 44.6636 9.04684C44.7546 9.09234 44.8414 9.15024 44.858 9.21642C44.9024 9.37395 44.988 9.51676 45.1061 9.63005L45.193 9.6011L45.1144 9.64246C45.2411 9.75411 45.3798 9.85122 45.528 9.932C45.7721 9.89496 46.0203 9.89496 46.2643 9.932C46.0496 9.9091 45.8325 9.92451 45.6232 9.9775C46.1997 10.2502 46.7289 10.6132 47.1908 11.0529C47.4979 11.4068 47.7746 11.786 48.0181 12.1863C48.1833 12.2189 48.3505 12.241 48.5186 12.2525C48.6042 12.2518 48.6883 12.275 48.7614 12.3196C48.8345 12.3642 48.8936 12.4283 48.9322 12.5048C49.0852 12.9055 49.1948 13.3215 49.259 13.7457C49.3381 14.4121 49.2804 15.0877 49.0894 15.7311C49.1142 16.67 49.0894 17.609 49.0273 18.5314V18.552C48.6675 17.9771 47.1329 17.2574 46.0823 17.1622C45.3585 17.0961 42.8147 17.7124 41.2553 18.1136C40.5811 18.2832 40.0971 18.4155 40.0144 18.4404C40.3685 18.2582 40.7348 18.1007 41.1105 17.9688C42.165 17.6216 43.2414 17.3452 44.3327 17.1416C43.271 16.3637 41.9439 16.0394 40.6431 16.2399C40.2745 16.2888 39.9198 16.4127 39.6008 16.6038C39.5346 16.6411 39.4684 16.6866 39.4064 16.7279C39.1586 16.898 38.9417 17.1092 38.7653 17.3525C38.469 17.7434 38.2768 18.2031 38.2069 18.6885C37.5947 22.9903 41.0816 23.4205 41.0816 23.4205Z" fill="black"/>
<path d="M41.499 6.57155V8.96646H44.3241C44.3922 8.95169 44.4628 8.95169 44.5309 8.96646L44.6509 9.02851C44.7419 9.07401 44.8287 9.13191 44.8453 9.19809C44.8896 9.35562 44.9753 9.49843 45.0934 9.61172C45.2201 9.72337 45.3588 9.82049 45.5071 9.90127C45.5212 9.91237 45.5365 9.92207 45.5526 9.93022L45.6022 9.96331C46.1787 10.236 46.7079 10.599 47.1698 11.0387C47.4769 11.3926 47.7536 11.7718 47.9971 12.1721C48.6491 13.2275 49.0128 14.4355 49.0518 15.6755V15.721C49.0767 16.66 49.0518 17.5989 48.9898 18.5213V18.542C48.9898 18.7281 48.965 18.9184 48.9567 19.1045H54.2304C54.1137 18.4892 53.9335 17.8876 53.6927 17.3094C53.6941 17.2998 53.6941 17.29 53.6927 17.2804C53.5425 16.9198 53.3726 16.5677 53.184 16.2257C53.064 15.994 52.9316 15.7748 52.7703 15.5473C52.4601 15.0468 52.1789 14.5256 51.8438 14.0458C51.2351 13.2339 50.7745 12.321 50.483 11.349C50.3719 10.9273 50.3095 10.4943 50.2969 10.0584C50.2969 9.70686 50.2969 9.35527 50.2969 8.98301H60.0543V6.56741C58.0192 6.56741 51.8438 6.56741 49.8005 6.56741C49.3662 6.56741 49.1594 6.24892 48.8409 6.09174C48.6093 5.98006 48.4273 5.85183 48.2784 6.19515C47.9185 5.92215 47.6372 5.69465 47.1409 5.85183C46.7209 5.91725 46.2928 5.91025 45.8752 5.83115C45.4864 5.80633 45.1265 5.79393 44.9818 6.26546C44.899 6.53019 44.6715 6.55914 44.4192 6.55914L41.499 6.57155Z" fill="black"/>
<path d="M49.8648 9.02954L60.0532 9.02954V6.56826L49.8648 6.56826V9.02954Z" fill="black"/>
<path d="M60.0711 6.50952H8.67114V8.98673H60.0711V6.50952Z" fill="black"/>
<path d="M38.1086 31.6944C37.8719 32.4332 37.4066 33.0776 36.7799 33.5349C36.1532 33.9921 35.3975 34.2384 34.6217 34.2382H34.539C33.7812 34.2378 33.0422 34.0025 32.4236 33.5647C31.8051 33.127 31.3375 32.5082 31.0852 31.7936L27.0565 21.5563C26.8173 20.8797 26.7441 20.1555 26.8432 19.4447C26.9423 18.7339 27.2107 18.0573 27.6258 17.4718C28.041 16.8864 28.5907 16.4093 29.2287 16.0807C29.8667 15.7521 30.5743 15.5816 31.292 15.5835H37.4964C38.2024 15.5837 38.8985 15.7505 39.5278 16.0706C40.1571 16.3906 40.702 16.8547 41.118 17.4252C41.5341 17.9956 41.8095 18.6562 41.922 19.3533C42.0344 20.0503 41.9806 20.764 41.765 21.4364L38.1086 31.6944Z" fill="black"/>
<path d="M34.3977 18.95C37.7603 18.95 40.4862 15.8907 40.4862 12.1168C40.4862 8.343 37.7603 5.28369 34.3977 5.28369C31.035 5.28369 28.3091 8.343 28.3091 12.1168C28.3091 15.8907 31.035 18.95 34.3977 18.95Z" fill="black"/>
<path d="M3.26237 3.84253H2.66671C2.29661 3.84253 1.99658 4.14256 1.99658 4.51266V11.0816C1.99658 11.4517 2.29661 11.7517 2.66671 11.7517H3.26237C3.63247 11.7517 3.9325 11.4517 3.9325 11.0816V4.51266C3.9325 4.14256 3.63247 3.84253 3.26237 3.84253Z" fill="black"/>
<path d="M5.26701 1.77441H4.67134C4.30125 1.77441 4.00122 2.07444 4.00122 2.44454V13.1501C4.00122 13.5202 4.30125 13.8202 4.67134 13.8202H5.26701C5.63711 13.8202 5.93714 13.5202 5.93714 13.1501V2.44454C5.93714 2.07444 5.63711 1.77441 5.26701 1.77441Z" fill="black"/>
<path d="M8.57886 1.07362V14.5207C8.57886 14.7577 8.48473 14.9849 8.31718 15.1525C8.14963 15.32 7.92238 15.4141 7.68543 15.4141H6.8954C6.65916 15.4131 6.43298 15.3184 6.26632 15.151C6.09966 14.9836 6.0061 14.7569 6.0061 14.5207V13.499C6.06243 13.3918 6.09222 13.2727 6.09297 13.1516V2.44273C6.09222 2.32163 6.06243 2.20248 6.0061 2.09528V1.07362C6.0061 0.837375 6.09966 0.61075 6.26632 0.443316C6.43298 0.275882 6.65916 0.181269 6.8954 0.180176L7.68956 0.180176C7.9258 0.181269 8.15198 0.275882 8.31864 0.443316C8.4853 0.61075 8.57886 0.837375 8.57886 1.07362Z" fill="black"/>
<path d="M2.06625 6.50928V8.98808H1.98725C1.56918 8.98808 1.23999 8.49087 1.23999 7.87026V7.62347C1.23999 7.00649 1.56918 6.50928 1.98725 6.50928H2.06625Z" fill="black"/>
<path d="M60.1384 1.07338V14.5205C60.1384 14.7574 60.2326 14.9847 60.4001 15.1522C60.5677 15.3198 60.7949 15.4139 61.0319 15.4139H61.8219C61.9396 15.4145 62.0562 15.3918 62.1651 15.3471C62.2739 15.3024 62.3729 15.2367 62.4563 15.1537C62.5397 15.0707 62.6059 14.972 62.6511 14.8633C62.6962 14.7547 62.7195 14.6382 62.7195 14.5205V13.4988C62.6631 13.3916 62.6333 13.2725 62.6326 13.1514V2.44249C62.6333 2.3214 62.6631 2.20225 62.7195 2.09505V1.07338C62.7195 0.955704 62.6962 0.839186 62.6511 0.730518C62.6059 0.621851 62.5397 0.523175 62.4563 0.440157C62.3729 0.357139 62.2739 0.291415 62.1651 0.246759C62.0562 0.202104 61.9396 0.179396 61.8219 0.179941H61.0319C60.9145 0.179941 60.7984 0.203051 60.69 0.24795C60.5816 0.29285 60.4831 0.35866 60.4001 0.441624C60.3171 0.524587 60.2513 0.623079 60.2064 0.731476C60.1615 0.839873 60.1384 0.956053 60.1384 1.07338Z" fill="black"/>
<path d="M64.0544 1.77417H63.4587C63.0886 1.77417 62.7886 2.0742 62.7886 2.4443V13.1498C62.7886 13.5199 63.0886 13.8199 63.4587 13.8199H64.0544C64.4245 13.8199 64.7245 13.5199 64.7245 13.1498V2.4443C64.7245 2.0742 64.4245 1.77417 64.0544 1.77417Z" fill="black"/>
<path d="M66.0588 3.84229H65.4631C65.093 3.84229 64.793 4.14231 64.793 4.51241V11.0813C64.793 11.4514 65.093 11.7515 65.4631 11.7515H66.0588C66.4289 11.7515 66.7289 11.4514 66.7289 11.0813V4.51241C66.7289 4.14231 66.4289 3.84229 66.0588 3.84229Z" fill="black"/>
<path d="M66.7438 8.98657V6.50777H66.8228C67.2409 6.50777 67.5701 7.00498 67.5701 7.62559V7.87238C67.5701 8.48936 67.2409 8.98657 66.8228 8.98657H66.7438Z" fill="black"/>
</svg>