<svg xmlns="http://www.w3.org/2000/svg" xmlns:xlink="http://www.w3.org/1999/xlink" viewBox="0 0 43 39"><g transform="translate(0.178 0.01)"><path d="M 0.035 38.896 L 0.035 0.084 L 42.609 0.084 L 42.609 38.896 Z" fill="transparent"></path><path d="M 22.799 0.323 C 22.869 0.335 22.938 0.348 23.01 0.361 C 26.089 0.942 28.997 2.246 31.426 4.22 C 31.506 4.283 31.585 4.346 31.667 4.41 C 32.816 5.336 33.896 6.397 34.765 7.589 C 34.861 7.719 34.959 7.848 35.057 7.976 C 37.034 10.596 38.212 13.788 38.615 17.025 C 38.623 17.082 38.63 17.139 38.638 17.197 C 38.716 17.844 38.704 18.492 38.7 19.142 C 38.699 19.261 38.699 19.38 38.699 19.499 C 38.698 19.788 38.697 20.076 38.695 20.365 C 38.77 20.368 38.846 20.372 38.923 20.376 C 39.582 20.412 40.207 20.485 40.852 20.633 C 40.929 20.65 41.007 20.667 41.087 20.684 C 41.509 20.778 41.906 20.876 42.289 21.081 C 42.384 21.354 42.384 21.354 42.369 21.637 C 42.246 21.812 42.246 21.812 42.05 21.956 C 41.765 21.992 41.765 21.992 41.446 21.985 C 41.365 21.985 41.365 21.985 41.283 21.985 C 40.991 21.98 40.86 21.962 40.612 21.797 C 40.612 21.744 40.612 21.692 40.612 21.637 C 39.614 21.512 39.614 21.512 38.615 21.399 C 38.609 21.472 38.603 21.546 38.597 21.622 C 38.269 25.128 36.813 28.513 34.621 31.261 C 34.567 31.33 34.512 31.4 34.456 31.471 C 33.764 32.337 33.008 33.185 32.145 33.886 C 32.078 33.944 32.011 34.002 31.941 34.061 C 29.243 36.367 25.978 37.825 22.48 38.419 C 22.424 38.429 22.367 38.439 22.309 38.449 C 17.523 39.263 12.37 38.011 8.404 35.271 C 7.531 34.655 6.718 33.988 5.945 33.249 C 5.901 33.207 5.856 33.164 5.809 33.12 C 5.122 32.466 4.513 31.784 3.949 31.022 C 3.914 30.977 3.88 30.931 3.845 30.885 C 0.814 26.835 -0.536 21.635 0.194 16.627 C 0.937 11.835 3.388 7.198 7.303 4.22 C 7.355 4.18 7.406 4.139 7.459 4.098 C 9.946 2.165 12.832 0.901 15.93 0.323 C 15.997 0.31 16.064 0.297 16.134 0.283 C 18.264 -0.113 20.674 -0.088 22.799 0.323 Z M 15.611 1.038 C 15.538 1.053 15.466 1.068 15.392 1.083 C 12.598 1.678 10.011 2.925 7.783 4.697 C 7.739 4.731 7.696 4.765 7.652 4.799 C 6.415 5.773 5.257 6.913 4.348 8.196 C 4.305 8.256 4.263 8.316 4.219 8.377 C 3.118 9.928 2.242 11.565 1.632 13.366 C 1.599 13.465 1.599 13.465 1.564 13.566 C 1.23 14.57 0.997 15.583 0.833 16.627 C 0.824 16.687 0.814 16.747 0.805 16.809 C 0.091 21.584 1.458 26.552 4.308 30.42 C 4.686 30.925 5.092 31.398 5.523 31.859 C 5.679 32.027 5.828 32.199 5.975 32.375 C 6.734 33.237 7.656 33.929 8.581 34.601 C 8.629 34.637 8.677 34.672 8.727 34.708 C 12.536 37.463 17.55 38.514 22.173 37.825 C 26.76 37.083 31.108 34.699 33.982 31.022 C 34.045 30.945 34.108 30.868 34.173 30.788 C 36.199 28.258 37.976 24.615 37.976 21.319 C 36.294 21.284 34.634 21.302 32.959 21.473 C 32.887 21.481 32.815 21.488 32.742 21.495 C 32.539 21.516 32.336 21.538 32.133 21.56 C 32.073 21.567 32.013 21.573 31.951 21.58 C 31.711 21.608 31.496 21.641 31.266 21.717 C 31.197 21.863 31.197 21.863 31.158 22.045 C 31.131 22.148 31.131 22.148 31.103 22.253 C 31.085 22.327 31.066 22.401 31.047 22.478 C 30.84 23.244 30.578 23.948 30.228 24.66 C 30.204 24.709 30.181 24.758 30.156 24.809 C 29.127 26.938 27.411 28.673 25.356 29.829 C 25.305 29.858 25.254 29.887 25.201 29.916 C 23.965 30.601 22.6 31.048 21.202 31.261 C 21.109 31.276 21.016 31.29 20.921 31.305 C 19.556 31.468 18.065 31.426 16.729 31.102 C 16.634 31.08 16.634 31.08 16.536 31.058 C 14.584 30.602 12.761 29.686 11.299 28.311 C 11.129 28.147 11.129 28.147 10.893 27.97 C 10.529 27.647 10.24 27.268 9.939 26.887 C 9.881 26.815 9.822 26.742 9.761 26.668 C 7.752 24.123 7.036 20.864 7.403 17.684 C 7.748 15.063 8.988 12.709 10.818 10.821 C 10.871 10.764 10.924 10.707 10.979 10.648 C 12.999 8.536 16.037 7.421 18.922 7.298 C 21.987 7.224 24.934 8.203 27.273 10.185 C 27.352 10.251 27.431 10.318 27.512 10.386 C 28.025 10.833 28.457 11.316 28.87 11.855 C 28.923 11.923 28.977 11.99 29.031 12.06 C 30.99 14.63 31.491 17.539 31.426 20.683 C 31.574 20.669 31.574 20.669 31.725 20.655 C 33.836 20.46 35.936 20.309 38.056 20.285 C 38.152 15.308 36.713 10.679 33.343 6.924 C 33.304 6.88 33.266 6.837 33.226 6.792 C 30.479 3.722 26.821 1.797 22.799 0.959 C 22.728 0.944 22.657 0.928 22.583 0.913 C 20.358 0.46 17.821 0.576 15.611 1.038 Z M 10.783 11.671 C 10.602 11.887 10.429 12.107 10.259 12.332 C 10.2 12.41 10.141 12.489 10.08 12.569 C 8.294 15.039 7.527 18.057 7.985 21.075 C 8.501 24.165 10.153 26.855 12.69 28.711 C 15.165 30.457 18.352 31.198 21.352 30.689 C 23.635 30.261 25.673 29.184 27.352 27.602 C 27.417 27.543 27.482 27.484 27.549 27.423 C 29.129 25.923 30.068 23.949 30.627 21.876 C 30.283 21.775 29.977 21.825 29.628 21.873 C 29.489 21.891 29.351 21.909 29.212 21.927 C 29.14 21.937 29.068 21.946 28.994 21.956 C 24.26 22.579 24.26 22.579 22.879 21.637 C 22.364 21.213 22.144 20.661 21.921 20.047 C 21.442 20.441 21.005 20.87 20.568 21.309 C 20.498 21.379 20.428 21.449 20.356 21.521 C 20.185 21.692 20.015 21.864 19.844 22.035 C 19.97 22.351 20.107 22.659 20.251 22.967 C 20.586 23.809 20.421 24.724 20.084 25.535 C 19.315 27.086 17.765 28.075 16.17 28.636 C 15.791 28.752 15.429 28.817 15.031 28.815 C 14.952 28.816 14.872 28.816 14.791 28.817 C 14.569 28.795 14.439 28.754 14.253 28.636 C 14.036 28.356 14.058 28.019 14.093 27.682 C 14.168 27.468 14.243 27.289 14.348 27.091 C 14.389 27.009 14.389 27.009 14.432 26.926 C 14.799 26.247 15.28 25.652 15.77 25.057 C 15.809 25.01 15.848 24.962 15.889 24.913 C 16.478 24.198 17.103 23.514 17.743 22.844 C 17.808 22.774 17.874 22.704 17.942 22.632 C 18.001 22.57 18.06 22.509 18.12 22.445 C 18.278 22.266 18.278 22.266 18.246 21.956 C 18.096 21.817 17.955 21.708 17.787 21.593 C 17.736 21.556 17.684 21.52 17.631 21.482 C 16.978 21.023 16.312 20.582 15.65 20.136 C 14.421 19.309 13.234 18.45 12.096 17.502 C 11.995 17.418 11.995 17.418 11.891 17.333 C 11.169 16.722 10.559 15.991 10.477 15.016 C 10.453 14.139 10.61 13.452 11.172 12.755 C 12.686 11.194 15.143 10.68 17.236 10.639 C 18.807 10.626 20.793 10.692 22.001 11.855 C 22.404 12.256 22.631 12.686 22.645 13.257 C 22.619 13.62 22.593 13.978 22.32 14.241 C 22.097 14.274 21.909 14.259 21.681 14.241 C 21.685 14.16 21.689 14.08 21.692 13.997 C 21.695 13.889 21.698 13.782 21.701 13.674 C 21.704 13.621 21.707 13.568 21.709 13.514 C 21.717 13.104 21.622 12.884 21.362 12.571 C 20.348 11.655 18.821 11.585 17.528 11.586 C 17.447 11.586 17.447 11.586 17.364 11.586 C 15.462 11.592 13.452 11.999 12.03 13.343 C 11.673 13.719 11.4 14.099 11.367 14.628 C 11.415 15.438 11.833 16 12.416 16.532 C 13.74 17.703 15.223 18.695 16.687 19.68 C 16.731 19.71 16.776 19.739 16.821 19.77 C 17.036 19.915 17.252 20.059 17.468 20.203 C 17.987 20.552 18.482 20.921 18.965 21.319 C 19.201 21.213 19.373 21.095 19.559 20.916 C 19.611 20.867 19.663 20.818 19.717 20.767 C 19.952 20.538 20.188 20.309 20.422 20.079 C 20.545 19.959 20.669 19.839 20.794 19.72 C 21.723 18.887 21.723 18.887 22.139 17.758 C 22.16 17.581 22.16 17.581 22.32 17.422 C 22.605 17.442 22.605 17.442 22.879 17.502 C 22.981 17.704 22.952 17.805 22.924 18.029 C 22.785 19.273 22.785 19.273 23.119 20.445 C 23.574 20.984 24.101 21.256 24.798 21.338 C 26.763 21.464 28.857 21.113 30.787 20.763 C 31.353 18.27 30.465 15.379 29.166 13.251 C 27.531 10.691 24.954 8.832 21.986 8.134 C 17.891 7.233 13.603 8.574 10.783 11.671 Z M 18.9 22.965 C 18.563 23.301 18.237 23.641 17.927 24.001 C 17.763 24.188 17.594 24.369 17.423 24.551 C 16.791 25.226 16.203 25.924 15.66 26.673 C 15.627 26.719 15.594 26.764 15.559 26.812 C 15.361 27.09 15.183 27.366 15.051 27.682 C 15.078 27.761 15.104 27.839 15.131 27.921 C 16.312 27.593 17.317 27.151 18.246 26.33 C 18.298 26.285 18.35 26.24 18.403 26.194 C 19.028 25.615 19.44 24.891 19.475 24.038 C 19.469 23.575 19.353 23.231 19.125 22.83 C 19.022 22.821 19.022 22.821 18.9 22.965 Z" fill="rgb(0,0,0)"></path><path d="M 19.495 2.047 C 19.636 2.136 19.636 2.136 19.764 2.231 C 19.808 2.262 19.852 2.293 19.897 2.324 C 20.326 2.649 20.604 3.061 20.723 3.583 C 20.801 4.329 20.652 4.956 20.193 5.557 C 19.802 5.977 19.214 6.247 18.642 6.304 C 17.977 6.318 17.414 6.147 16.889 5.731 C 16.401 5.223 16.172 4.68 16.17 3.981 C 16.22 3.351 16.501 2.83 16.968 2.404 C 17.654 1.872 18.674 1.655 19.495 2.047 Z M 17.528 2.39 C 17.006 3.079 16.973 3.779 17.048 4.617 C 17.173 5.198 17.466 5.599 17.927 5.969 C 18.25 6.13 18.616 6.104 18.965 6.049 C 19.443 5.806 19.705 5.405 19.874 4.909 C 20.043 4.185 19.928 3.477 19.576 2.826 C 19.277 2.35 19.277 2.35 18.806 2.072 C 18.294 2.005 17.92 2.027 17.528 2.39 Z" fill="rgb(0,0,0)"></path><path d="M 26.199 3.151 C 26.788 3.52 27.201 4.029 27.399 4.695 C 27.512 5.244 27.45 5.789 27.193 6.288 C 26.782 6.884 26.331 7.227 25.616 7.363 C 24.921 7.449 24.337 7.343 23.758 6.924 C 23.163 6.431 22.931 5.929 22.854 5.164 C 22.904 4.555 23.117 3.987 23.541 3.538 C 24.213 2.979 25.39 2.779 26.199 3.151 Z M 24.121 4.046 C 23.707 4.631 23.536 5.26 23.598 5.969 C 23.687 6.415 23.878 6.717 24.242 6.992 C 24.506 7.147 24.736 7.202 25.036 7.162 C 25.662 6.973 26.073 6.61 26.394 6.049 C 26.707 5.363 26.854 4.681 26.619 3.951 C 26.463 3.59 26.227 3.423 25.88 3.245 C 25.109 3.021 24.593 3.478 24.121 4.046 Z" fill="rgb(0,0,0)"></path><path d="M 6.744 25.216 C 6.797 25.216 6.85 25.216 6.904 25.216 C 7.027 25.379 7.027 25.379 7.159 25.594 C 7.225 25.699 7.225 25.699 7.292 25.807 C 7.398 26.044 7.388 26.093 7.303 26.33 C 7.204 26.49 7.204 26.49 7.08 26.657 C 7.035 26.719 6.989 26.78 6.943 26.844 C 6.895 26.907 6.848 26.97 6.799 27.036 C 6.706 27.161 6.613 27.287 6.521 27.413 C 6.477 27.472 6.433 27.532 6.387 27.593 C 6.234 27.805 6.089 28.02 5.945 28.239 C 6.035 28.215 6.124 28.192 6.217 28.167 C 6.594 28.073 6.974 28.01 7.358 27.95 C 7.424 27.94 7.491 27.929 7.559 27.918 C 8.285 27.805 8.285 27.805 8.502 27.841 C 8.645 27.992 8.645 27.992 8.766 28.189 C 8.807 28.254 8.848 28.318 8.89 28.385 C 8.981 28.557 8.981 28.557 8.981 28.716 C 8.92 28.68 8.859 28.644 8.796 28.607 C 8.317 28.526 8.02 28.783 7.623 29.034 C 7.571 29.065 7.52 29.097 7.467 29.129 C 7.302 29.23 7.138 29.333 6.974 29.437 C 6.921 29.469 6.868 29.502 6.813 29.536 C 6.514 29.73 6.514 29.73 6.355 30.038 C 6.352 30.1 6.348 30.163 6.345 30.227 C 6.318 30.306 6.292 30.385 6.265 30.466 C 6.039 30.193 5.837 29.914 5.646 29.616 C 5.597 29.54 5.548 29.464 5.497 29.386 C 5.386 29.193 5.386 29.193 5.386 29.034 C 5.431 29.06 5.475 29.087 5.521 29.114 C 5.739 29.207 5.869 29.213 6.105 29.193 C 6.295 29.108 6.295 29.108 6.476 28.984 C 6.543 28.941 6.611 28.898 6.68 28.854 C 6.749 28.808 6.818 28.763 6.889 28.716 C 6.96 28.67 7.03 28.625 7.103 28.578 C 7.277 28.466 7.45 28.353 7.623 28.239 C 7.508 28.253 7.508 28.253 7.391 28.268 C 6.59 28.368 5.789 28.464 4.987 28.557 C 5.116 28.169 5.337 27.864 5.571 27.533 C 5.609 27.479 5.647 27.424 5.686 27.369 C 5.929 27.02 6.177 26.675 6.425 26.33 C 6.096 26.513 5.768 26.698 5.443 26.887 C 5.332 26.952 5.22 27.015 5.108 27.077 C 4.938 27.175 4.938 27.175 4.747 27.364 C 4.701 27.659 4.701 27.659 4.747 27.921 C 4.695 27.921 4.642 27.921 4.588 27.921 C 4.45 27.735 4.45 27.735 4.298 27.493 C 4.248 27.414 4.197 27.334 4.145 27.253 C 4.028 27.046 4.028 27.046 4.028 26.887 C 4.093 26.929 4.093 26.929 4.158 26.971 C 4.425 27.076 4.548 27.041 4.827 26.966 C 5.092 26.828 5.341 26.667 5.591 26.504 C 5.691 26.44 5.691 26.44 5.794 26.375 C 6.291 26.063 6.291 26.063 6.744 25.694 C 6.778 25.442 6.778 25.442 6.744 25.216 Z" fill="rgb(0,0,0)"></path><path d="M 9.46 29.114 C 9.752 29.16 9.903 29.279 10.119 29.477 C 10.175 29.527 10.232 29.578 10.29 29.631 C 10.332 29.67 10.375 29.709 10.419 29.75 C 10.399 29.817 10.38 29.883 10.36 29.952 C 10.288 30.199 10.217 30.446 10.146 30.693 C 10.115 30.8 10.084 30.907 10.053 31.013 C 10.008 31.167 9.964 31.321 9.919 31.474 C 9.879 31.613 9.879 31.613 9.838 31.754 C 9.773 31.964 9.773 31.964 9.78 32.136 C 9.841 32.102 9.902 32.068 9.965 32.032 C 10.193 31.906 10.421 31.781 10.649 31.656 C 10.748 31.602 10.847 31.547 10.945 31.492 C 11.086 31.413 11.229 31.336 11.371 31.258 C 11.456 31.211 11.542 31.164 11.629 31.116 C 11.856 31.022 11.856 31.022 12.037 31.04 C 12.212 31.118 12.334 31.218 12.475 31.346 C 12.549 31.411 12.549 31.411 12.624 31.478 C 12.679 31.528 12.679 31.528 12.735 31.579 C 12.709 31.632 12.682 31.684 12.655 31.738 C 12.595 31.719 12.535 31.7 12.474 31.681 C 12.254 31.634 12.254 31.634 12.108 31.768 C 12.061 31.826 12.014 31.883 11.966 31.942 C 11.912 32.007 11.858 32.072 11.803 32.14 C 11.711 32.256 11.711 32.256 11.617 32.375 C 11.539 32.469 11.461 32.564 11.383 32.659 C 11.303 32.758 11.223 32.857 11.142 32.956 C 11.084 33.027 11.084 33.027 11.025 33.1 C 10.842 33.332 10.703 33.513 10.658 33.806 C 10.727 34.021 10.727 34.021 10.818 34.204 C 10.474 34.089 10.233 33.916 9.954 33.687 C 9.876 33.624 9.798 33.56 9.718 33.495 C 9.659 33.44 9.6 33.386 9.54 33.329 C 9.54 33.276 9.54 33.224 9.54 33.17 C 9.664 33.185 9.664 33.185 9.791 33.2 C 10.113 33.199 10.113 33.199 10.335 32.96 C 10.409 32.869 10.482 32.777 10.553 32.683 C 10.59 32.637 10.627 32.592 10.665 32.545 C 10.893 32.26 11.098 31.964 11.297 31.659 C 11.173 31.725 11.048 31.791 10.924 31.857 C 10.816 31.914 10.708 31.971 10.6 32.028 C 10.331 32.171 10.062 32.315 9.794 32.461 C 9.702 32.511 9.61 32.561 9.515 32.613 C 9.431 32.659 9.348 32.705 9.261 32.752 C 9.061 32.852 9.061 32.852 8.901 32.852 C 9.011 32.246 9.163 31.656 9.326 31.063 C 9.352 30.968 9.352 30.968 9.378 30.871 C 9.394 30.814 9.41 30.757 9.426 30.698 C 9.469 30.533 9.469 30.533 9.46 30.307 C 9.318 30.484 9.177 30.661 9.036 30.839 C 8.996 30.888 8.956 30.938 8.915 30.989 C 8.704 31.255 8.499 31.516 8.342 31.818 C 8.361 31.986 8.361 31.986 8.422 32.136 C 8.422 32.215 8.422 32.293 8.422 32.375 C 8.116 32.176 7.817 31.979 7.543 31.738 C 7.543 31.686 7.543 31.633 7.543 31.579 C 7.624 31.592 7.704 31.605 7.787 31.619 C 8.191 31.568 8.283 31.436 8.529 31.13 C 8.576 31.068 8.623 31.006 8.671 30.943 C 8.742 30.854 8.742 30.854 8.815 30.764 C 9.267 30.208 9.267 30.208 9.62 29.591 C 9.58 29.318 9.58 29.318 9.46 29.114 Z" fill="rgb(0,0,0)"></path><path d="M 30.308 5.81 C 30.636 5.943 30.872 6.174 31.127 6.412 C 31.172 6.454 31.218 6.497 31.265 6.54 C 32.389 7.595 32.389 7.595 32.41 8.221 C 32.405 8.589 32.313 8.791 32.065 9.071 C 31.834 9.258 31.693 9.306 31.396 9.345 C 30.768 9.269 30.4 8.878 29.988 8.435 C 29.707 8.556 29.514 8.72 29.294 8.932 C 29.2 9.021 29.2 9.021 29.104 9.112 C 28.923 9.344 28.888 9.497 28.87 9.787 C 28.936 9.972 28.936 9.972 29.03 10.105 C 28.79 10.105 28.79 10.105 28.629 9.965 C 28.57 9.903 28.511 9.841 28.451 9.777 C 28.225 9.543 28 9.325 27.747 9.121 C 27.631 9.018 27.631 9.018 27.512 8.912 C 27.512 8.833 27.512 8.755 27.512 8.674 C 27.599 8.715 27.599 8.715 27.687 8.758 C 27.951 8.846 28.048 8.838 28.311 8.753 C 28.529 8.583 28.529 8.583 28.741 8.362 C 28.78 8.323 28.819 8.283 28.86 8.243 C 28.943 8.159 29.026 8.076 29.108 7.992 C 29.234 7.864 29.36 7.738 29.486 7.612 C 30.027 7.07 30.027 7.07 30.468 6.447 C 30.462 6.234 30.462 6.234 30.388 6.049 C 30.348 5.931 30.348 5.931 30.308 5.81 Z M 31.058 7.033 C 31.009 7.083 30.96 7.133 30.909 7.185 C 30.855 7.239 30.802 7.292 30.747 7.348 C 30.663 7.433 30.663 7.433 30.577 7.52 C 30.521 7.577 30.465 7.634 30.406 7.693 C 30.267 7.834 30.127 7.975 29.988 8.117 C 30.373 8.531 30.373 8.531 30.892 8.708 C 31.323 8.657 31.51 8.471 31.781 8.132 C 31.853 7.852 31.831 7.594 31.746 7.322 C 31.564 7.081 31.564 7.081 31.346 6.924 C 31.179 6.907 31.179 6.907 31.058 7.033 Z" fill="rgb(0,0,0)"></path><path d="M 13.374 2.947 C 13.454 3.089 13.534 3.232 13.614 3.375 C 13.658 3.454 13.703 3.533 13.748 3.615 C 13.853 3.822 13.853 3.822 13.853 3.981 C 13.673 3.895 13.513 3.807 13.349 3.693 C 13.02 3.525 12.742 3.534 12.389 3.639 C 12.326 3.66 12.262 3.682 12.197 3.705 C 12.133 3.726 12.069 3.748 12.003 3.771 C 11.955 3.788 11.906 3.805 11.856 3.822 C 11.899 3.904 11.942 3.986 11.986 4.071 C 12.145 4.377 12.303 4.683 12.462 4.989 C 12.53 5.122 12.599 5.254 12.668 5.386 C 12.767 5.577 12.865 5.767 12.964 5.958 C 12.995 6.017 13.025 6.076 13.057 6.136 C 13.204 6.421 13.341 6.703 13.454 7.003 C 13.691 7.003 13.928 7.003 14.173 7.003 C 14.173 7.082 14.173 7.161 14.173 7.242 C 13.91 7.375 13.647 7.507 13.384 7.64 C 13.309 7.678 13.234 7.715 13.157 7.755 C 13.05 7.808 13.05 7.808 12.94 7.863 C 12.841 7.913 12.841 7.913 12.74 7.964 C 12.575 8.037 12.575 8.037 12.416 8.037 C 12.44 7.995 12.465 7.952 12.49 7.908 C 12.615 7.631 12.703 7.391 12.606 7.09 C 12.526 6.914 12.439 6.745 12.348 6.575 C 12.316 6.512 12.284 6.45 12.251 6.385 C 12.149 6.186 12.045 5.988 11.941 5.79 C 11.838 5.591 11.735 5.392 11.632 5.192 C 11.568 5.068 11.504 4.945 11.439 4.821 C 11.217 4.396 11.217 4.396 11.217 4.22 C 11.074 4.305 10.931 4.391 10.788 4.478 C 10.708 4.526 10.629 4.574 10.546 4.624 C 10.337 4.778 10.256 4.85 10.179 5.095 C 10.16 5.301 10.16 5.301 10.169 5.512 C 10.17 5.583 10.172 5.654 10.173 5.727 C 10.175 5.781 10.177 5.835 10.179 5.89 C 10.126 5.89 10.073 5.89 10.019 5.89 C 9.95 5.751 9.882 5.612 9.815 5.472 C 9.777 5.395 9.739 5.317 9.699 5.237 C 9.62 5.015 9.62 5.015 9.62 4.862 C 9.749 4.595 10 4.509 10.256 4.384 C 10.313 4.355 10.369 4.327 10.427 4.297 C 10.609 4.206 10.791 4.116 10.973 4.026 C 11.093 3.966 11.213 3.905 11.332 3.845 C 11.563 3.729 11.794 3.614 12.025 3.499 C 12.214 3.405 12.403 3.31 12.591 3.214 C 12.661 3.177 12.732 3.141 12.805 3.103 C 12.864 3.073 12.923 3.042 12.984 3.01 C 13.134 2.947 13.134 2.947 13.374 2.947 Z" fill="rgb(0,0,0)"></path><path d="M 7.383 6.606 C 7.419 6.636 7.455 6.667 7.492 6.699 C 7.54 6.74 7.588 6.782 7.638 6.824 C 7.689 6.868 7.739 6.911 7.791 6.956 C 7.917 7.062 8.047 7.162 8.177 7.262 C 8.231 7.308 8.286 7.354 8.342 7.401 C 8.342 7.454 8.342 7.506 8.342 7.56 C 8.119 7.521 7.924 7.473 7.713 7.391 C 7.404 7.305 7.213 7.316 6.904 7.401 C 6.693 7.564 6.693 7.564 6.584 7.799 C 6.59 8.05 6.625 8.207 6.749 8.425 C 7.009 8.575 7.256 8.558 7.543 8.514 C 7.7 8.465 7.857 8.411 8.012 8.355 C 8.528 8.173 9.004 8.079 9.525 8.286 C 9.816 8.534 10.056 8.783 10.179 9.151 C 10.208 9.598 10.2 9.883 9.939 10.264 C 9.608 10.611 9.301 10.873 8.821 10.98 C 8.821 11.085 8.821 11.19 8.821 11.298 C 8.527 11.176 8.343 10.997 8.122 10.771 C 8.058 10.706 7.994 10.641 7.929 10.574 C 7.88 10.524 7.832 10.475 7.783 10.423 C 8.052 10.331 8.183 10.357 8.442 10.468 C 8.844 10.612 9.065 10.586 9.46 10.423 C 9.683 10.187 9.7 10.066 9.7 9.742 C 9.603 9.412 9.517 9.321 9.22 9.151 C 8.837 9.051 8.602 9.093 8.232 9.225 C 7.707 9.396 7.341 9.48 6.804 9.305 C 6.526 9.11 6.371 8.912 6.265 8.594 C 6.204 8.202 6.22 7.898 6.385 7.535 C 6.632 7.271 6.898 7.083 7.224 6.924 C 7.276 6.924 7.329 6.924 7.383 6.924 C 7.357 6.845 7.331 6.766 7.303 6.685 C 7.33 6.659 7.356 6.633 7.383 6.606 Z" fill="rgb(0,0,0)"></path><path d="M 17.767 33.011 C 19.836 32.983 19.836 32.983 20.228 33.249 C 20.436 33.532 20.458 33.69 20.436 34.032 C 20.393 34.258 20.305 34.42 20.164 34.601 C 20.228 34.649 20.292 34.697 20.358 34.746 C 20.581 34.935 20.629 35.038 20.662 35.324 C 20.673 35.653 20.673 35.826 20.493 36.113 C 20.22 36.368 20.058 36.361 19.69 36.362 C 19.595 36.362 19.5 36.362 19.402 36.362 C 19.303 36.362 19.203 36.361 19.1 36.361 C 19.001 36.361 18.903 36.362 18.801 36.362 C 18.706 36.362 18.61 36.362 18.512 36.362 C 18.425 36.362 18.338 36.362 18.248 36.361 C 18.025 36.352 17.824 36.322 17.607 36.272 C 17.767 36.113 17.767 36.113 18.007 36.033 C 18.14 35.636 18.121 35.22 18.136 34.804 C 18.142 34.642 18.149 34.479 18.156 34.317 C 18.16 34.215 18.164 34.113 18.168 34.007 C 18.171 33.914 18.175 33.82 18.179 33.723 C 18.186 33.473 18.186 33.473 18.007 33.249 C 17.928 33.223 17.849 33.197 17.767 33.17 C 17.767 33.117 17.767 33.065 17.767 33.011 Z M 18.806 33.17 C 18.806 33.616 18.806 34.062 18.806 34.522 C 19.326 34.564 19.326 34.564 19.599 34.403 C 19.8 34.161 19.819 34.025 19.797 33.719 C 19.77 33.552 19.77 33.552 19.644 33.374 C 19.393 33.198 19.393 33.198 18.806 33.17 Z M 18.806 34.681 C 18.734 34.947 18.714 35.207 18.706 35.481 C 18.704 35.548 18.702 35.614 18.7 35.683 C 18.732 35.918 18.799 36.024 18.965 36.192 C 19.304 36.242 19.466 36.23 19.754 36.043 C 19.972 35.826 20 35.76 20.029 35.451 C 20 35.11 19.932 34.993 19.684 34.761 C 19.409 34.637 19.103 34.675 18.806 34.681 Z" fill="rgb(0,0,0)"></path><path d="M 15.566 32.414 C 15.987 32.665 16.242 33.055 16.439 33.493 C 16.565 34.08 16.475 34.564 16.17 35.079 C 15.76 35.502 15.291 35.715 14.702 35.74 C 14.175 35.724 13.782 35.581 13.389 35.228 C 13.055 34.865 12.909 34.494 12.885 34.004 C 12.914 33.406 13.142 32.992 13.574 32.583 C 14.152 32.209 14.925 32.136 15.566 32.414 Z M 14.043 32.921 C 13.572 33.517 13.468 34.005 13.534 34.761 C 13.633 35.056 13.713 35.186 13.948 35.387 C 14.247 35.506 14.499 35.546 14.812 35.476 C 15.307 35.232 15.594 34.878 15.77 34.363 C 15.931 33.84 15.972 33.446 15.77 32.931 C 15.604 32.695 15.481 32.568 15.202 32.481 C 14.681 32.392 14.394 32.519 14.043 32.921 Z" fill="rgb(0,0,0)"></path><path d="M 32.784 22.671 C 32.837 22.698 32.889 22.724 32.944 22.751 C 32.95 22.826 32.956 22.901 32.962 22.979 C 32.998 23.247 32.998 23.247 33.24 23.367 C 33.382 23.422 33.382 23.422 33.527 23.478 C 33.578 23.498 33.628 23.518 33.68 23.539 C 33.842 23.603 34.004 23.664 34.167 23.725 C 34.276 23.768 34.384 23.81 34.493 23.853 C 34.692 23.931 34.892 24.008 35.092 24.084 C 35.288 24.162 35.474 24.244 35.66 24.342 C 35.66 24.42 35.66 24.499 35.66 24.58 C 35.243 24.705 34.827 24.83 34.41 24.954 C 34.268 24.996 34.127 25.039 33.985 25.081 C 33.781 25.142 33.578 25.203 33.374 25.264 C 33.311 25.283 33.247 25.302 33.182 25.322 C 32.935 25.395 32.723 25.455 32.465 25.455 C 32.465 25.508 32.465 25.56 32.465 25.614 C 32.541 25.625 32.541 25.625 32.619 25.636 C 33.021 25.731 33.395 25.899 33.775 26.056 C 34.223 26.248 34.223 26.248 34.701 26.25 C 34.754 26.172 34.807 26.093 34.861 26.012 C 34.914 26.012 34.966 26.012 35.021 26.012 C 34.968 26.415 34.793 26.761 34.621 27.125 C 34.568 27.125 34.516 27.125 34.461 27.125 C 34.468 27.065 34.475 27.004 34.481 26.941 C 34.485 26.722 34.485 26.722 34.326 26.606 C 33.986 26.39 33.608 26.262 33.233 26.116 C 33.151 26.083 33.069 26.05 32.984 26.016 C 32.904 25.985 32.825 25.954 32.742 25.921 C 32.634 25.879 32.634 25.879 32.523 25.835 C 32.281 25.767 32.075 25.762 31.826 25.773 C 31.799 25.826 31.773 25.878 31.746 25.932 C 31.667 25.906 31.588 25.88 31.506 25.853 C 31.588 25.519 31.697 25.253 31.905 24.978 C 32.303 24.766 32.717 24.668 33.153 24.565 C 33.269 24.535 33.384 24.505 33.5 24.474 C 34.308 24.262 34.308 24.262 34.621 24.262 C 34.621 24.21 34.621 24.157 34.621 24.103 C 34.569 24.095 34.518 24.087 34.464 24.079 C 34.263 24.033 34.089 23.977 33.897 23.903 C 33.838 23.881 33.78 23.858 33.72 23.835 C 33.598 23.788 33.476 23.74 33.355 23.691 C 33.19 23.629 33.038 23.574 32.864 23.546 C 32.661 23.637 32.661 23.637 32.544 23.785 C 32.492 23.759 32.439 23.732 32.385 23.705 C 32.516 23.364 32.648 23.023 32.784 22.671 Z" fill="rgb(0,0,0)"></path><path d="M 30.947 26.807 C 31.266 26.874 31.484 27.01 31.746 27.205 C 31.746 27.257 31.746 27.31 31.746 27.364 C 31.6 27.337 31.6 27.337 31.451 27.309 C 31.216 27.281 31.118 27.28 30.892 27.369 C 30.663 27.56 30.492 27.765 30.308 28 C 30.603 28.312 30.911 28.553 31.266 28.796 C 31.451 28.577 31.451 28.577 31.401 28.358 C 31.361 28.211 31.315 28.065 31.266 27.921 C 31.597 27.963 31.767 28.142 32.005 28.363 C 32.077 28.429 32.148 28.494 32.221 28.562 C 32.275 28.613 32.329 28.664 32.385 28.716 C 32.145 28.796 32.145 28.796 31.945 28.751 C 31.726 28.689 31.726 28.689 31.506 28.875 C 31.609 29.181 31.809 29.342 32.07 29.517 C 32.336 29.643 32.512 29.603 32.784 29.511 C 33.025 29.297 33.095 29.146 33.178 28.835 C 33.184 28.523 33.123 28.409 32.944 28.159 C 32.944 28.107 32.944 28.054 32.944 28 C 33.298 28.111 33.493 28.287 33.743 28.557 C 33.626 28.915 33.425 29.164 33.178 29.442 C 33.1 29.532 33.021 29.623 32.942 29.714 C 32.902 29.76 32.863 29.805 32.822 29.852 C 32.536 30.183 32.262 30.524 31.985 30.863 C 31.905 30.625 31.905 30.625 31.882 30.432 C 31.768 30.017 31.349 29.775 31.027 29.511 C 30.982 29.475 30.938 29.438 30.893 29.4 C 30.755 29.286 30.617 29.175 30.478 29.064 C 30.434 29.028 30.39 28.992 30.345 28.955 C 30.107 28.763 30.107 28.763 29.813 28.729 C 29.742 28.762 29.742 28.762 29.669 28.796 C 29.59 28.822 29.511 28.848 29.429 28.875 C 29.468 28.529 29.696 28.315 29.918 28.065 C 29.998 27.973 30.078 27.881 30.158 27.79 C 30.197 27.745 30.236 27.7 30.276 27.653 C 30.51 27.38 30.729 27.094 30.947 26.807 Z" fill="rgb(0,0,0)"></path><path d="M 25.515 31.579 C 25.515 31.818 25.515 31.818 25.425 31.966 C 25.334 32.138 25.334 32.138 25.412 32.334 C 25.447 32.406 25.482 32.478 25.518 32.553 C 25.556 32.633 25.595 32.713 25.634 32.795 C 25.676 32.877 25.717 32.96 25.76 33.046 C 25.799 33.128 25.838 33.211 25.879 33.296 C 26.172 33.894 26.172 33.894 26.634 34.363 C 26.978 34.377 27.237 34.257 27.497 34.029 C 27.694 33.731 27.671 33.358 27.672 33.011 C 27.926 33.243 28.03 33.484 28.151 33.806 C 28.151 33.885 28.151 33.964 28.151 34.045 C 27.815 34.217 27.478 34.388 27.141 34.559 C 27.026 34.617 26.911 34.675 26.797 34.734 C 26.632 34.818 26.467 34.901 26.302 34.985 C 26.251 35.011 26.2 35.038 26.147 35.065 C 26.019 35.129 25.887 35.184 25.755 35.238 C 25.636 35.198 25.636 35.198 25.515 35.158 C 25.556 35.129 25.598 35.099 25.64 35.069 C 25.78 34.921 25.78 34.921 25.734 34.699 C 25.675 34.444 25.595 34.237 25.481 34.001 C 25.442 33.921 25.403 33.841 25.363 33.758 C 25.323 33.675 25.282 33.593 25.241 33.508 C 25.18 33.382 25.18 33.382 25.119 33.254 C 24.923 32.823 24.923 32.823 24.637 32.454 C 24.478 32.422 24.318 32.395 24.157 32.375 C 24.376 32.112 24.669 31.987 24.971 31.843 C 25.023 31.817 25.076 31.792 25.129 31.765 C 25.258 31.703 25.387 31.641 25.515 31.579 Z" fill="rgb(0,0,0)"></path><path d="M 28.79 29.511 C 28.766 29.601 28.742 29.691 28.717 29.784 C 28.677 30.102 28.748 30.252 28.936 30.509 C 29.037 30.634 29.14 30.757 29.245 30.878 C 29.296 30.94 29.347 31.002 29.399 31.066 C 29.498 31.186 29.597 31.305 29.697 31.423 C 29.805 31.551 29.908 31.683 30.01 31.817 C 30.142 31.997 30.142 31.997 30.388 32.056 C 30.559 32.025 30.559 32.025 30.707 31.977 C 30.585 32.308 30.345 32.473 30.068 32.673 C 30.025 32.705 29.981 32.738 29.936 32.772 C 29.611 33.011 29.611 33.011 29.429 33.011 C 29.462 32.944 29.495 32.876 29.529 32.807 C 29.598 32.491 29.541 32.404 29.377 32.138 C 29.169 31.826 28.945 31.528 28.715 31.231 C 28.667 31.166 28.618 31.101 28.568 31.034 C 28.52 30.972 28.473 30.91 28.424 30.847 C 28.381 30.791 28.338 30.735 28.294 30.677 C 28.116 30.513 27.989 30.497 27.752 30.466 C 27.673 30.439 27.594 30.413 27.512 30.386 C 28.485 29.511 28.485 29.511 28.79 29.511 Z" fill="rgb(0,0,0)"></path><path d="M 5.945 22.91 C 6.025 22.936 6.104 22.963 6.185 22.99 C 6.281 23.23 6.281 23.23 6.365 23.531 C 6.393 23.63 6.422 23.729 6.451 23.831 C 6.499 24.076 6.514 24.194 6.425 24.421 C 6.372 24.342 6.319 24.264 6.265 24.183 C 5.714 24.099 5.2 24.32 4.682 24.491 C 4.591 24.52 4.5 24.549 4.405 24.579 C 3.938 24.71 3.938 24.71 3.549 24.978 C 3.497 25.182 3.497 25.182 3.469 25.376 C 3.299 25.206 3.27 25.129 3.207 24.905 C 3.189 24.845 3.172 24.784 3.154 24.722 C 3.136 24.659 3.118 24.596 3.1 24.531 C 3.072 24.435 3.072 24.435 3.044 24.337 C 2.999 24.18 2.955 24.022 2.91 23.864 C 2.989 23.864 3.068 23.864 3.15 23.864 C 3.188 23.905 3.226 23.945 3.265 23.987 C 3.379 24.12 3.379 24.12 3.538 24.102 C 3.593 24.087 3.649 24.072 3.706 24.056 C 3.801 24.031 3.801 24.031 3.899 24.006 C 4.278 23.894 4.656 23.778 5.032 23.656 C 5.112 23.63 5.193 23.604 5.276 23.577 C 5.473 23.514 5.669 23.451 5.866 23.387 C 5.892 23.23 5.918 23.072 5.945 22.91 Z" fill="rgb(0,0,0)"></path><path d="M 23.199 32.534 C 23.199 32.586 23.199 32.639 23.199 32.693 C 23.12 32.745 23.041 32.798 22.959 32.852 C 22.897 33.414 23.048 33.93 23.189 34.472 C 23.21 34.559 23.232 34.646 23.254 34.735 C 23.349 35.187 23.349 35.187 23.598 35.556 C 23.763 35.607 23.763 35.607 23.918 35.635 C 23.918 35.688 23.918 35.74 23.918 35.794 C 23.166 35.952 23.166 35.952 22.4 36.113 C 22.48 35.874 22.48 35.874 22.61 35.773 C 22.747 35.633 22.747 35.633 22.702 35.393 C 22.68 35.296 22.658 35.199 22.635 35.099 C 22.623 35.047 22.612 34.995 22.6 34.941 C 22.41 33.99 22.41 33.99 22.081 33.09 C 21.879 33.038 21.879 33.038 21.681 33.011 C 21.681 32.958 21.681 32.906 21.681 32.852 C 21.889 32.798 22.097 32.745 22.305 32.693 C 22.364 32.677 22.423 32.662 22.484 32.647 C 22.728 32.585 22.946 32.534 23.199 32.534 Z" fill="rgb(0,0,0)"></path><path d="M 23.598 14.559 C 23.748 14.644 23.748 14.644 23.838 14.798 C 23.867 15.219 23.798 15.537 23.653 15.931 C 23.619 16.027 23.585 16.122 23.549 16.221 C 23.451 16.44 23.392 16.567 23.199 16.706 C 22.95 16.737 22.791 16.747 22.57 16.622 C 22.411 16.349 22.444 16.048 22.523 15.748 C 22.58 15.578 22.643 15.412 22.71 15.245 C 22.731 15.187 22.753 15.13 22.775 15.071 C 22.962 14.587 23.078 14.517 23.598 14.559 Z" fill="rgb(0,0,0)"></path></g></svg>