<svg xmlns="http://www.w3.org/2000/svg" xmlns:xlink="http://www.w3.org/1999/xlink" viewBox="0 0 137 21"><path d="M 18.354 8.66 L 17.148 15.502 C 16.635 18.526 13.769 21 10.783 21 L 5.051 21 C 2.065 21 0.044 18.526 0.557 15.502 L 2.246 5.88 C 2.759 2.856 5.655 0.382 8.641 0.382 L 17.389 0.382 L 15.458 4.444 L 7.977 4.444 C 7.163 4.444 6.349 5.116 6.198 5.972 L 4.569 15.441 C 4.418 16.265 4.991 16.968 5.806 16.968 L 11.386 16.968 C 12.231 16.968 13.015 16.265 13.166 15.441 L 13.618 12.722 L 9.637 12.722 L 9.154 8.66 Z M 37.676 9.301 L 37.676 9.393 M 38.28 5.788 L 38.28 5.88 M 36.289 21 L 31.673 21 L 29.2 14.799 L 25.671 14.799 L 27.601 10.737 L 31.915 10.737 C 32.759 10.737 33.544 10.065 33.694 9.209 L 34.237 5.972 C 34.388 5.116 33.845 4.444 33.001 4.444 L 25.912 4.444 L 23.046 21 L 19.064 21 L 22.654 0.382 L 33.815 0.382 C 36.771 0.382 38.762 2.795 38.28 5.788 L 38.28 5.88 L 37.676 9.301 L 37.676 9.393 C 37.254 11.561 35.625 13.455 33.604 14.311 Z M 42.695 21 L 38.713 21 L 42.303 0.382 L 46.285 0.382 Z M 61.414 19.87 L 61.233 21 L 57.221 21 L 51.761 8.171 L 49.529 21 L 45.547 21 L 49.137 0.382 L 53.119 0.382 L 58.549 13.211 L 60.811 0.382 L 64.823 0.382 Z M 82.477 0.382 L 81.753 4.444 L 75.901 4.444 L 73.035 21 L 69.053 21 L 71.557 6.46 L 73.91 4.444 L 66.067 4.444 L 66.791 0.382 Z M 100.2 5.88 L 97.576 21 L 93.564 21 L 94.62 14.799 L 87.531 14.799 L 89.462 10.737 L 95.344 10.737 L 96.158 5.972 C 96.309 5.116 95.766 4.444 94.922 4.444 L 89.341 4.444 C 88.527 4.444 87.712 5.116 87.561 5.972 L 84.967 21 L 80.985 21 L 83.61 5.88 C 84.122 2.856 87.018 0.382 90.005 0.382 L 95.736 0.382 C 98.722 0.382 100.713 2.856 100.2 5.88 Z M 106.189 10.706 L 108.573 8.66 L 115.118 8.66 L 114.394 12.722 L 105.827 12.722 L 104.41 21 L 100.428 21 L 103.052 5.88 C 103.565 2.856 106.461 0.382 109.447 0.382 L 118.195 0.382 L 116.265 4.444 L 108.784 4.444 C 107.969 4.444 107.155 5.116 107.004 5.972 Z M 136.936 0.382 L 127.796 11.317 L 126.137 21 L 122.125 21 L 124.025 10.065 L 125.202 8.66 L 122.517 8.66 L 118.505 0.382 L 123.301 0.382 L 126.529 7.041 L 132.14 0.382 Z" fill="rgb(0,0,0)"></path></svg>