<svg xmlns="http://www.w3.org/2000/svg" viewBox="0 0 53 87">
<path d="M26.4165 0.610362C24.8268 1.33646 23.8821 1.82657 22.9374 2.40745C18.7678 4.99417 17.0328 7.91671 17.1963 12.0918C17.2326 13.1174 17.2508 13.19 17.487 13.435C17.9503 13.9252 18.5952 13.9615 19.9851 13.5984C22.5377 12.9359 24.7542 10.694 26.0078 7.52644C26.6436 5.92902 27.3068 3.36045 27.1978 2.95202C27.1705 2.85219 27.2523 2.21685 27.3794 1.53614C27.5066 0.864496 27.5884 0.265466 27.5793 0.201932C27.5611 0.138399 27.1433 0.283618 26.4165 0.610362Z" fill="black"/>
<path d="M12.2644 4.08573C10.9198 6.61818 10.1295 8.78755 9.79332 10.8662C9.6298 11.8828 9.72973 14.978 9.96593 15.8766C10.2657 17.0566 10.9198 18.3636 11.6285 19.235C11.8465 19.4983 12.4461 19.8613 12.6732 19.8613C13.5181 19.8613 14.7173 18.5452 15.3351 16.9477C15.6803 16.0581 15.9801 14.8055 16.0164 14.1429C16.0255 13.8706 16.0709 13.2988 16.1073 12.8721C16.2526 11.1838 15.7439 8.8057 14.7082 6.34587C14.3448 5.48357 13.0366 2.88759 12.9639 2.88759C12.9367 2.88759 12.6187 3.4322 12.2644 4.08573Z" fill="black"/>
<path d="M23.8773 12.3159C21.9786 12.9512 20.9248 13.396 19.7075 14.0858C16.973 15.638 15.2197 17.5623 14.5293 19.8042C14.175 20.9661 13.9115 23.3079 14.1386 23.3079C14.175 23.3079 14.2204 23.4077 14.2295 23.5439C14.2567 23.9251 14.4293 24.1339 14.8654 24.3245C15.2288 24.4879 15.3832 24.506 16.1463 24.4425C16.6187 24.4153 17.1365 24.3245 17.2819 24.2428C17.6453 24.0613 17.5544 24.143 16.5642 24.8963C13.1393 27.5014 11.3587 29.9612 10.8954 32.7115C10.7228 33.7009 10.8137 37.0593 11.0135 37.4405C11.2043 37.8127 11.6131 38.0305 12.1218 38.0305C12.6306 38.0305 13.0121 37.9034 14.0024 37.4042C15.9101 36.4602 16.7005 35.7068 17.5544 34.0367C17.8724 33.4013 18.2358 32.5935 18.363 32.2486C18.6809 31.359 19.0625 29.6072 19.1079 28.8175C19.1261 28.4635 19.2078 27.574 19.2805 26.8479C19.3623 26.1217 19.4259 25.1233 19.4259 24.624C19.4259 24.1248 19.4531 23.6347 19.4804 23.5348C19.5076 23.435 19.8165 23.1536 20.1708 22.8994C21.7515 21.783 23.1142 19.9132 24.1771 17.3989C24.8584 15.7923 25.1673 14.7848 25.1219 14.3309C25.0856 14.0405 25.1582 13.632 25.3853 12.8786C25.558 12.2977 25.6942 11.8166 25.6942 11.8076C25.6942 11.7259 25.3127 11.8348 23.8773 12.3159Z" fill="black"/>
<path d="M17.0781 12.5076C17.0781 12.6349 17.0964 12.6803 17.1237 12.6167C17.142 12.5621 17.142 12.453 17.1237 12.3894C17.0964 12.3348 17.0781 12.3803 17.0781 12.5076Z" fill="black"/>
<path d="M5.99652 16.4249C5.21522 19.0753 4.94268 20.7364 4.93359 22.7696C4.93359 25.647 5.08804 26.7634 5.7058 28.243C6.45985 30.0493 8.21322 31.9282 9.16713 31.9373C9.74855 31.9373 10.4027 31.1839 10.866 29.9585C11.193 29.1234 11.4565 27.898 11.3838 27.5985C11.3475 27.4442 11.3657 27.3988 11.4383 27.4533C11.511 27.4896 11.5201 27.4805 11.4838 27.417C11.4474 27.3625 11.4656 26.8905 11.5201 26.3822C11.7654 24.0767 10.9659 21.5261 9.13079 18.7395C8.54027 17.8499 7.3865 16.3069 6.64154 15.4264L6.38717 15.1269L5.99652 16.4249Z" fill="black"/>
<path d="M1.57777 29.902C1.62319 30.6463 1.65953 31.5359 1.65045 31.8717C1.64136 32.2711 1.66862 32.4526 1.72313 32.371C1.77764 32.2983 1.78672 32.3528 1.75038 32.5434C1.6777 32.9246 2.00476 34.858 2.38632 36.2286C3.01317 38.5251 4.0125 40.286 5.42065 41.5658C6.65619 42.7004 8.10068 43.4538 9.0455 43.4629C9.4634 43.4629 9.57242 43.4266 9.79046 43.1997C10.0993 42.9001 10.3719 42.0469 10.281 41.6838C10.2447 41.5477 10.2538 41.4569 10.2992 41.4932C10.3901 41.5477 10.4082 41.3298 10.4355 39.5145C10.4536 38.5705 10.4173 38.0803 10.2992 37.6083C9.53608 34.4586 7.37389 32.0805 2.74971 29.303C2.15011 28.9399 1.62319 28.6222 1.57777 28.595C1.53235 28.5677 1.53235 29.1124 1.57777 29.902Z" fill="black"/>
<path d="M17.9164 34.5016C14.9638 37.5605 13.3013 40.3289 12.8379 42.9703C12.6926 43.7872 12.6744 46.4649 12.8107 46.247C12.847 46.1835 12.8561 46.2834 12.8289 46.4649C12.7653 46.828 12.9106 47.8536 13.1287 48.6343C13.2286 48.9973 13.383 49.2424 13.6647 49.5329C14.0553 49.9232 14.0644 49.9232 14.6004 49.8869C15.0456 49.8596 15.2363 49.7779 15.7542 49.4421C16.5355 48.9338 17.6438 47.8536 18.1526 47.1003C18.3706 46.7826 18.6795 46.2017 18.843 45.8204C19.2155 44.9581 19.6425 43.2517 19.5698 42.8977C19.5425 42.7525 19.5516 42.6526 19.588 42.6798C19.7333 42.7706 19.7697 38.4954 19.6243 37.5151C19.4517 36.2716 18.9248 33.5667 18.8703 33.5667C18.8339 33.5667 18.4069 33.9842 17.9164 34.5016Z" fill="black"/>
<path d="M0.0260637 41.6644C0.0624034 41.7824 0.253187 42.1908 0.453055 42.5811C0.734688 43.153 0.789198 43.3254 0.698349 43.4253C0.425801 43.752 0.870962 44.8413 1.98841 46.6113C2.66069 47.6823 3.17853 48.3722 4.01435 49.298C4.9501 50.351 6.76708 51.7125 7.4212 51.8577C8.0208 51.9848 7.61198 51.9848 6.52179 51.8487C4.96827 51.658 1.8703 51.5491 1.92481 51.6853C1.95207 51.7488 2.17011 52.121 2.42449 52.5294C2.88782 53.2647 2.9605 53.4099 2.80605 53.3191C2.76063 53.2828 2.69703 53.3827 2.66069 53.537C2.57893 53.9091 2.8969 54.5717 3.66004 55.5793C5.66781 58.2388 7.50296 59.8454 9.5289 60.6986C9.90138 60.862 10.3284 61.0526 10.4919 61.1253C10.6463 61.207 10.819 61.2433 10.8735 61.216C10.928 61.1797 10.9734 61.1888 10.9734 61.2251C10.9734 61.2705 10.2375 61.4248 9.3472 61.57L7.71192 61.8423L8.34786 62.5413C8.73851 62.977 8.93838 63.2493 8.84753 63.2493C8.64766 63.2493 8.5659 63.6577 8.71126 64.0026C8.94747 64.5926 11.0188 66.4353 12.6995 67.5608C14.7346 68.9223 17.242 69.7302 18.9591 69.5759L19.5587 69.5214L18.5593 69.8663C18.0142 70.066 17.2148 70.3474 16.7878 70.5017C16.3608 70.656 15.961 70.8103 15.8884 70.8285C15.8157 70.8557 16.0428 71.0736 16.4607 71.3822C17.1421 71.8814 17.2511 71.9813 17.0421 71.9359C16.9876 71.9268 16.8968 72.0266 16.8514 72.1628C16.6515 72.6893 17.0876 73.1522 18.6956 74.1143C20.5398 75.2217 22.4749 76.0386 24.0557 76.3745C25.1277 76.6014 27.0356 76.6014 27.9986 76.3745C29.3976 76.0568 30.8058 75.3488 31.1965 74.7769C31.4327 74.432 31.5053 73.7785 31.3055 73.7785C31.2419 73.7785 31.3691 73.6242 31.5962 73.4245L31.9959 73.0796L31.6325 72.5894C30.1154 70.5925 28.1712 69.3399 25.9999 68.9586C25.2549 68.8316 23.7832 68.8043 22.6475 68.9042C21.9571 68.9586 21.8662 68.9586 22.057 68.8588C22.4204 68.6682 22.7111 68.1599 22.6748 67.7605C22.6566 67.4519 22.6839 67.3883 22.9019 67.2794C23.0382 67.2068 23.1472 67.107 23.1472 67.0525C23.1472 67.0071 23.02 66.7076 22.8656 66.399C21.412 63.5125 19.2134 61.9059 15.9701 61.3522C15.0162 61.1888 14.6255 61.0708 15.0344 61.0708C15.1343 61.0708 15.3069 60.971 15.4159 60.853C15.6794 60.5716 15.8974 59.9634 15.7702 59.8817C15.7157 59.8454 15.7612 59.791 15.8702 59.7547C16.1155 59.682 16.1155 59.5731 15.7884 58.611C14.8708 55.8697 13.4082 54.2177 10.7645 52.9379C10.3011 52.711 10.0286 52.5567 10.1558 52.593C10.4556 52.6837 11.4731 52.6474 11.891 52.5385C12.0727 52.484 12.3271 52.366 12.4452 52.2662C12.6995 52.0756 12.9358 51.3585 12.7541 51.3494C12.6995 51.3494 12.7541 51.304 12.8722 51.2587C13.072 51.177 13.0811 51.1407 13.0357 50.6505C12.9448 49.8154 12.6178 48.6445 12.2453 47.8457C10.6554 44.4328 7.59381 42.6537 1.7522 41.737C1.09809 41.6371 0.434886 41.5373 0.271357 41.501C-0.0193609 41.4556 -0.0284459 41.4647 0.0260637 41.6644ZM21.7572 69.0222C21.73 69.0494 21.6482 69.0585 21.5846 69.0313C21.5119 69.004 21.5392 68.9768 21.6391 68.9768C21.739 68.9677 21.7936 68.995 21.7572 69.0222Z" fill="black"/>
<path d="M20.4219 45.4315C18.078 48.445 16.6789 51.2407 16.2883 53.6733C16.1248 54.6808 16.152 57.5491 16.3428 58.5748C16.47 59.2919 16.9969 60.2813 17.5602 60.8622C17.9599 61.2797 18.0689 61.3433 18.3687 61.3433C18.8684 61.3433 19.2863 61.1073 19.9858 60.4537C21.0306 59.4734 21.8664 58.2027 22.2752 57.0136C22.5386 56.233 22.7294 55.1528 22.6477 54.8896C22.6022 54.7444 22.6113 54.7171 22.6931 54.7625C22.7749 54.8079 22.793 54.7988 22.7476 54.7262C22.7113 54.6718 22.7294 54.1816 22.7839 53.637C22.9475 52.0939 22.6386 49.5343 22.0481 47.501C21.8119 46.7023 21.1305 44.5511 21.1123 44.5511C21.1123 44.5601 20.7944 44.9504 20.4219 45.4315Z" fill="black"/>
<path d="M25.4024 52.4285C24.3939 54.3347 23.5218 56.613 23.1312 58.3557C22.9404 59.209 22.9222 59.5085 22.9313 61.4782C22.9404 63.5114 22.9585 63.7111 23.1766 64.5462C23.4673 65.6445 23.8943 66.5521 24.503 67.3509C25.4932 68.658 26.1201 68.7941 26.9922 67.9137C27.3919 67.5143 28.0188 66.5975 28.3458 65.9258C28.7183 65.1815 29.0908 63.9652 29.0908 63.4569C29.0999 63.2028 29.1271 63.0394 29.1544 63.0848C29.1907 63.1392 29.2089 63.0031 29.2089 62.7853C29.2089 62.5674 29.218 61.814 29.2271 61.1151C29.2452 60.1257 29.2089 59.6356 29.0635 58.9094C28.7092 57.1122 27.9098 55.0881 26.5289 52.5102C26.2109 51.9293 25.9475 51.4482 25.9384 51.4482C25.9293 51.4482 25.6931 51.8839 25.4024 52.4285Z" fill="black"/>
<path d="M31.0637 59.2307C30.7366 61.4182 30.6458 63.1882 30.773 64.6587C30.8275 65.3576 30.9002 66.0293 30.9183 66.1564C30.9638 66.3561 30.9547 66.3561 30.882 66.2017C30.7457 65.9294 30.7639 66.1201 30.9638 67.2184C31.1909 68.5073 31.4453 69.297 31.8995 70.1956C32.4446 71.2939 32.8625 71.8476 33.7528 72.6917C34.6704 73.5631 35.4153 74.0442 35.9422 74.1168C36.6327 74.2075 37.196 73.4451 37.6048 71.8657C37.7047 71.4573 37.8046 70.8763 37.8228 70.5768C37.8319 70.2682 37.8773 69.6056 37.9137 69.0973C38.0953 66.7282 37.196 64.3319 35.1791 61.7995C34.5886 61.0552 31.4725 57.8964 31.3362 57.8964C31.2999 57.8964 31.1727 58.4955 31.0637 59.2307Z" fill="black"/>
<path d="M38.805 66.0092C38.8323 66.0637 39.0139 66.5266 39.2229 67.0439C39.6226 68.0514 39.6407 68.0968 39.5045 68.0151C39.4136 67.9606 39.3773 68.1784 39.4136 68.605C39.4136 68.7321 39.6952 69.3856 40.0132 70.0572C42.3568 74.9039 45.1456 77.3545 48.8155 77.7629C49.5423 77.8446 49.8875 77.8265 50.3871 77.6631C50.7323 77.5542 51.0411 77.1276 51.0411 76.7464C51.0411 76.583 51.0865 76.5013 51.1774 76.5013C51.2864 76.5013 51.3136 76.4287 51.2773 76.2018C51.2501 76.0475 51.2046 75.6663 51.1774 75.3668C50.7413 71.2371 48.0434 68.487 42.911 66.9259C41.4484 66.4812 38.7596 65.8822 38.805 66.0092Z" fill="black"/>
<path d="M35.0488 74.3679C34.9761 74.386 34.6036 74.4496 34.2312 74.504C32.8957 74.7219 31.1606 75.4208 29.5072 76.4101C28.308 77.1272 25.8188 78.8881 25.837 79.0061C25.8461 79.0515 26.1096 79.1877 26.4275 79.3057C26.7455 79.4327 26.9544 79.5417 26.8999 79.5598C26.7364 79.6143 26.6546 80.168 26.7727 80.3949C27.0816 80.9667 30.1431 81.8199 32.7504 82.0559C35.9027 82.3464 38.5918 81.475 40.5177 79.5417C41.2263 78.8246 41.4625 78.2981 41.2354 77.8715C41.1718 77.7535 41.2354 77.6083 41.5079 77.2543C41.6987 76.9911 41.8622 76.7551 41.8622 76.7097C41.8622 76.6098 40.6812 75.7838 40.0453 75.4389C38.8007 74.7491 37.1837 74.3134 35.9118 74.3316C35.5121 74.3406 35.1215 74.3588 35.0488 74.3679Z" fill="black"/>
<path d="M45.5921 78.3089C43.7115 78.7264 41.8946 79.616 39.9596 81.0682C38.8967 81.8761 36.8708 83.5825 36.8708 83.6733C36.8708 83.7096 37.1343 83.8094 37.4613 83.9002C37.9792 84.0364 38.0337 84.0727 37.9156 84.1907C37.7066 84.3904 37.7521 84.8351 37.9973 85.0802C38.2699 85.3525 38.8604 85.525 40.5047 85.8245C41.6493 86.0333 42.0763 86.0605 43.7751 86.0696C45.474 86.0696 45.8373 86.0514 46.5641 85.879C48.3083 85.4614 49.6801 84.7444 50.8793 83.6007C51.8059 82.7202 52.133 82.2029 52.133 81.6401C52.133 81.3406 52.1057 81.2316 52.0239 81.277C51.9149 81.3496 51.9149 81.3406 52.3782 80.6144C52.5418 80.3512 52.678 80.1061 52.678 80.0607C52.678 79.8156 50.5159 78.7264 49.4076 78.4087C48.4174 78.1274 46.6277 78.082 45.5921 78.3089Z" fill="black"/>
</svg>